<svg width="40" height="40" viewBox="0 0 40 40" fill="none" xmlns="http://www.w3.org/2000/svg">
<path d="M16.6668 9.99984C16.6668 9.11578 17.018 8.26794 17.6431 7.64281C18.2682 7.01769 19.116 6.6665 20.0001 6.6665C20.8841 6.6665 21.732 7.01769 22.3571 7.64281C22.9822 8.26794 23.3334 9.11578 23.3334 9.99984C23.3334 12.7782 22.2168 14.9998 20.0001 16.6665H20.0134M20.0134 16.6665L6.72843 24.0465C6.20853 24.3352 5.77534 24.7578 5.47378 25.2703C5.17222 25.7829 5.01327 26.3668 5.01343 26.9615V28.3332C5.01343 29.2172 5.36462 30.0651 5.98974 30.6902C6.61486 31.3153 7.46271 31.6665 8.34676 31.6665H31.6801C32.5641 31.6665 33.412 31.3153 34.0371 30.6902C34.6622 30.0651 35.0134 29.2172 35.0134 28.3332V26.9615C35.0136 26.3668 34.8546 25.7829 34.5531 25.2703C34.2515 24.7578 33.8183 24.3352 33.2984 24.0465L20.0134 16.6665Z" stroke="black" stroke-width="4" stroke-linecap="round" stroke-linejoin="round"/>
</svg>
