<svg width="108" height="48" viewBox="0 0 108 48" fill="none" xmlns="http://www.w3.org/2000/svg">
<g filter="url(#filter0_d_94_4286)">
<g clip-path="url(#clip0_94_4286)">
<rect x="4" width="100" height="40" rx="10" fill="#424242"/>
<path d="M38.3854 22.4365C38.3854 22.2314 38.3535 22.0492 38.2896 21.8896C38.2304 21.7301 38.1233 21.5843 37.9684 21.4521C37.8134 21.32 37.5947 21.1924 37.3121 21.0693C37.0341 20.9417 36.6786 20.8118 36.2457 20.6797C35.7717 20.5339 35.3342 20.3721 34.9332 20.1943C34.5367 20.012 34.1904 19.8024 33.8941 19.5654C33.5979 19.3239 33.3678 19.0482 33.2037 18.7383C33.0396 18.4238 32.9576 18.0615 32.9576 17.6514C32.9576 17.2458 33.0419 16.8766 33.2105 16.5439C33.3837 16.2113 33.6275 15.9242 33.942 15.6826C34.261 15.4365 34.637 15.2474 35.0699 15.1152C35.5029 14.9785 35.9814 14.9102 36.5055 14.9102C37.2437 14.9102 37.8795 15.0469 38.4127 15.3203C38.9505 15.5938 39.3629 15.9606 39.65 16.4209C39.9417 16.8812 40.0875 17.3893 40.0875 17.9453H38.3854C38.3854 17.6172 38.3147 17.3278 38.1734 17.0771C38.0367 16.8219 37.8271 16.6214 37.5445 16.4756C37.2665 16.3298 36.9133 16.2568 36.485 16.2568C36.0794 16.2568 35.7421 16.3184 35.4732 16.4414C35.2044 16.5645 35.0038 16.7308 34.8717 16.9404C34.7395 17.1501 34.6734 17.387 34.6734 17.6514C34.6734 17.8382 34.7167 18.0091 34.8033 18.1641C34.8899 18.3145 35.0221 18.4557 35.1998 18.5879C35.3775 18.7155 35.6008 18.8363 35.8697 18.9502C36.1386 19.0641 36.4553 19.1735 36.8199 19.2783C37.3714 19.4424 37.8521 19.6247 38.2623 19.8252C38.6725 20.0212 39.0143 20.2445 39.2877 20.4951C39.5611 20.7458 39.7662 21.0306 39.9029 21.3496C40.0396 21.6641 40.108 22.0218 40.108 22.4229C40.108 22.8421 40.0237 23.2204 39.8551 23.5576C39.6865 23.8903 39.4449 24.1751 39.1305 24.4121C38.8206 24.6445 38.4469 24.8245 38.0094 24.9521C37.5764 25.0752 37.0934 25.1367 36.5602 25.1367C36.0816 25.1367 35.61 25.0729 35.1451 24.9453C34.6848 24.8177 34.2656 24.624 33.8873 24.3643C33.509 24.0999 33.2083 23.7718 32.985 23.3799C32.7617 22.9834 32.65 22.5208 32.65 21.9922H34.3658C34.3658 22.3158 34.4205 22.5915 34.5299 22.8193C34.6438 23.0472 34.801 23.234 35.0016 23.3799C35.2021 23.5212 35.4345 23.626 35.6988 23.6943C35.9677 23.7627 36.2548 23.7969 36.5602 23.7969C36.9612 23.7969 37.2962 23.7399 37.565 23.626C37.8385 23.512 38.0436 23.3525 38.1803 23.1475C38.317 22.9424 38.3854 22.7054 38.3854 22.4365ZM43.3252 17.6035V25H41.6709V17.6035H43.3252ZM41.5615 15.6621C41.5615 15.4115 41.6436 15.2041 41.8076 15.04C41.9762 14.8714 42.2087 14.7871 42.5049 14.7871C42.7965 14.7871 43.0267 14.8714 43.1953 15.04C43.3639 15.2041 43.4482 15.4115 43.4482 15.6621C43.4482 15.9082 43.3639 16.1133 43.1953 16.2773C43.0267 16.4414 42.7965 16.5234 42.5049 16.5234C42.2087 16.5234 41.9762 16.4414 41.8076 16.2773C41.6436 16.1133 41.5615 15.9082 41.5615 15.6621ZM49.9672 17.6035H51.4643V24.7949C51.4643 25.4603 51.323 26.0254 51.0404 26.4902C50.7579 26.9551 50.3637 27.3083 49.8578 27.5498C49.352 27.7959 48.7663 27.9189 48.101 27.9189C47.8184 27.9189 47.504 27.8779 47.1576 27.7959C46.8158 27.7139 46.4831 27.5817 46.1596 27.3994C45.8406 27.2217 45.574 26.987 45.3598 26.6953L46.1322 25.7246C46.3965 26.0391 46.6882 26.2692 47.0072 26.415C47.3262 26.5609 47.6612 26.6338 48.0121 26.6338C48.3904 26.6338 48.7117 26.5632 48.976 26.4219C49.2449 26.2852 49.4522 26.0824 49.598 25.8135C49.7439 25.5446 49.8168 25.2165 49.8168 24.8291V19.2783L49.9672 17.6035ZM44.9428 21.3838V21.2402C44.9428 20.6797 45.0111 20.1693 45.1479 19.709C45.2846 19.2441 45.4805 18.8454 45.7357 18.5127C45.9909 18.1755 46.3008 17.918 46.6654 17.7402C47.03 17.5579 47.4424 17.4668 47.9027 17.4668C48.3812 17.4668 48.7891 17.5534 49.1264 17.7266C49.4682 17.8997 49.753 18.1481 49.9809 18.4717C50.2087 18.7907 50.3865 19.1735 50.5141 19.6201C50.6462 20.0622 50.7442 20.5544 50.808 21.0967V21.5547C50.7488 22.0833 50.6485 22.5664 50.5072 23.0039C50.3659 23.4414 50.1791 23.8197 49.9467 24.1387C49.7143 24.4577 49.4271 24.7038 49.0854 24.877C48.7481 25.0501 48.3493 25.1367 47.8891 25.1367C47.4379 25.1367 47.03 25.0433 46.6654 24.8564C46.3054 24.6696 45.9955 24.4076 45.7357 24.0703C45.4805 23.7331 45.2846 23.3366 45.1479 22.8809C45.0111 22.4206 44.9428 21.9215 44.9428 21.3838ZM46.5902 21.2402V21.3838C46.5902 21.721 46.6221 22.0355 46.6859 22.3271C46.7543 22.6188 46.8568 22.8763 46.9936 23.0996C47.1348 23.3184 47.3126 23.4915 47.5268 23.6191C47.7455 23.7422 48.003 23.8037 48.2992 23.8037C48.6866 23.8037 49.0033 23.7217 49.2494 23.5576C49.5001 23.3936 49.6915 23.1725 49.8236 22.8945C49.9604 22.612 50.0561 22.2975 50.1107 21.9512V20.7139C50.0834 20.445 50.0264 20.1943 49.9398 19.9619C49.8578 19.7295 49.7462 19.5267 49.6049 19.3535C49.4636 19.1758 49.2859 19.0391 49.0717 18.9434C48.8575 18.8431 48.6046 18.793 48.3129 18.793C48.0167 18.793 47.7592 18.8568 47.5404 18.9844C47.3217 19.112 47.1417 19.2874 47.0004 19.5107C46.8637 19.734 46.7611 19.9938 46.6928 20.29C46.6244 20.5863 46.5902 20.903 46.5902 21.2402ZM54.907 19.1826V25H53.2596V17.6035H54.8113L54.907 19.1826ZM54.6131 21.0283L54.0799 21.0215C54.0844 20.4974 54.1574 20.0166 54.2986 19.5791C54.4445 19.1416 54.645 18.7656 54.9002 18.4512C55.16 18.1367 55.4699 17.8952 55.8299 17.7266C56.1899 17.5534 56.5909 17.4668 57.033 17.4668C57.3885 17.4668 57.7098 17.5169 57.9969 17.6172C58.2885 17.7129 58.5369 17.8701 58.742 18.0889C58.9516 18.3076 59.1111 18.5924 59.2205 18.9434C59.3299 19.2897 59.3846 19.7158 59.3846 20.2217V25H57.7303V20.2148C57.7303 19.8594 57.6779 19.5791 57.573 19.374C57.4728 19.1644 57.3247 19.0163 57.1287 18.9297C56.9373 18.8385 56.698 18.793 56.4109 18.793C56.1284 18.793 55.8755 18.8522 55.6521 18.9707C55.4288 19.0892 55.2397 19.251 55.0848 19.4561C54.9344 19.6611 54.8182 19.8981 54.7361 20.167C54.6541 20.4359 54.6131 20.723 54.6131 21.0283ZM66.7486 15.0469V25H65.0328V15.0469H66.7486ZM70.4512 19.1826V25H68.8037V17.6035H70.3555L70.4512 19.1826ZM70.1572 21.0283L69.624 21.0215C69.6286 20.4974 69.7015 20.0166 69.8428 19.5791C69.9886 19.1416 70.1891 18.7656 70.4443 18.4512C70.7041 18.1367 71.014 17.8952 71.374 17.7266C71.734 17.5534 72.1351 17.4668 72.5771 17.4668C72.9326 17.4668 73.2539 17.5169 73.541 17.6172C73.8327 17.7129 74.0811 17.8701 74.2861 18.0889C74.4958 18.3076 74.6553 18.5924 74.7646 18.9434C74.874 19.2897 74.9287 19.7158 74.9287 20.2217V25H73.2744V20.2148C73.2744 19.8594 73.222 19.5791 73.1172 19.374C73.0169 19.1644 72.8688 19.0163 72.6729 18.9297C72.4814 18.8385 72.2422 18.793 71.9551 18.793C71.6725 18.793 71.4196 18.8522 71.1963 18.9707C70.973 19.0892 70.7839 19.251 70.6289 19.4561C70.4785 19.6611 70.3623 19.8981 70.2803 20.167C70.1982 20.4359 70.1572 20.723 70.1572 21.0283Z" fill="white"/>
</g>
</g>
<defs>
<filter id="filter0_d_94_4286" x="0" y="0" width="108" height="48" filterUnits="userSpaceOnUse" color-interpolation-filters="sRGB">
<feFlood flood-opacity="0" result="BackgroundImageFix"/>
<feColorMatrix in="SourceAlpha" type="matrix" values="0 0 0 0 0 0 0 0 0 0 0 0 0 0 0 0 0 0 127 0" result="hardAlpha"/>
<feOffset dy="4"/>
<feGaussianBlur stdDeviation="2"/>
<feComposite in2="hardAlpha" operator="out"/>
<feColorMatrix type="matrix" values="0 0 0 0 0 0 0 0 0 0 0 0 0 0 0 0 0 0 0.25 0"/>
<feBlend mode="normal" in2="BackgroundImageFix" result="effect1_dropShadow_94_4286"/>
<feBlend mode="normal" in="SourceGraphic" in2="effect1_dropShadow_94_4286" result="shape"/>
</filter>
<clipPath id="clip0_94_4286">
<rect x="4" width="100" height="40" rx="10" fill="white"/>
</clipPath>
</defs>
</svg>
