<svg width="150" height="150" viewBox="0 0 150 150" fill="none" xmlns="http://www.w3.org/2000/svg">
<path d="M75 131.25L65.9375 123.125C55.4167 113.646 46.7188 105.469 39.8438 98.5938C32.9688 91.7188 27.5 85.5729 23.4375 80.1563C19.375 74.6354 16.5104 69.5833 14.8438 65C13.2812 60.4167 12.5 55.7292 12.5 50.9375C12.5 41.1458 15.7813 32.9688 22.3438 26.4063C28.9063 19.8438 37.0833 16.5625 46.875 16.5625C52.2917 16.5625 57.4479 17.7083 62.3438 20C67.2396 22.2917 71.4583 25.5208 75 29.6875C78.5417 25.5208 82.7604 22.2917 87.6562 20C92.5521 17.7083 97.7083 16.5625 103.125 16.5625C112.917 16.5625 121.094 19.8438 127.656 26.4063C134.219 32.9688 137.5 41.1458 137.5 50.9375C137.5 55.7292 136.667 60.4167 135 65C133.438 69.5833 130.625 74.6354 126.563 80.1563C122.5 85.5729 117.031 91.7188 110.156 98.5938C103.281 105.469 94.5833 113.646 84.0625 123.125L75 131.25ZM75 114.375C85 105.417 93.2292 97.7604 99.6875 91.4062C106.146 84.9479 111.25 79.375 115 74.6875C118.75 69.8958 121.354 65.6771 122.813 62.0313C124.271 58.2813 125 54.5833 125 50.9375C125 44.6875 122.917 39.4792 118.75 35.3125C114.583 31.1458 109.375 29.0625 103.125 29.0625C98.2292 29.0625 93.6979 30.4688 89.5313 33.2813C85.3646 35.9896 82.5 39.4792 80.9375 43.75H69.0625C67.5 39.4792 64.6354 35.9896 60.4688 33.2813C56.3021 30.4688 51.7708 29.0625 46.875 29.0625C40.625 29.0625 35.4167 31.1458 31.25 35.3125C27.0833 39.4792 25 44.6875 25 50.9375C25 54.5833 25.7292 58.2813 27.1875 62.0313C28.6458 65.6771 31.25 69.8958 35 74.6875C38.75 79.375 43.8542 84.9479 50.3125 91.4062C56.7708 97.7604 65 105.417 75 114.375Z" fill="#1D1B20"/>
</svg>
