<svg width="150" height="150" viewBox="0 0 150 150" fill="none" xmlns="http://www.w3.org/2000/svg">
<path d="M134.65 69.0313C136.55 71.6956 137.5 73.0281 137.5 75C137.5 76.9719 136.55 78.3044 134.65 80.9687C126.112 92.9412 104.307 118.75 75 118.75C45.6924 118.75 23.8881 92.9412 15.3502 80.9687C13.4501 78.3044 12.5 76.9719 12.5 75C12.5 73.0281 13.4501 71.6956 15.3502 69.0313C23.8881 57.059 45.6924 31.25 75 31.25C104.307 31.25 126.112 57.059 134.65 69.0313Z" stroke="black" stroke-width="2"/>
<path d="M93.75 75C93.75 64.6444 85.3556 56.25 75 56.25C64.6444 56.25 56.25 64.6444 56.25 75C56.25 85.3556 64.6444 93.75 75 93.75C85.3556 93.75 93.75 85.3556 93.75 75Z" stroke="black" stroke-width="2"/>
</svg>
