<svg width="150" height="150" viewBox="0 0 150 150" fill="none" xmlns="http://www.w3.org/2000/svg">
<path d="M100 131.25H50C48.3424 131.25 46.7527 130.592 45.5806 129.419C44.4085 128.247 43.75 126.658 43.75 125V75.4375L35.625 82C33.1875 84.375 29.25 84.375 26.8125 82L9.125 64.3125C6.6875 61.875 6.6875 57.9375 9.125 55.5L45.875 18.75H56.25C56.25 25.625 64.625 31.25 75 31.25C85.375 31.25 93.75 25.625 93.75 18.75H104.125L140.875 55.5C143.312 57.9375 143.312 61.875 140.875 64.3125L123.187 82C120.75 84.375 116.812 84.375 114.375 82L106.25 75.4375V125C106.25 126.658 105.592 128.247 104.419 129.419C103.247 130.592 101.658 131.25 100 131.25ZM127.625 59.875L100.687 33C98.75 35.1875 96.4375 37.125 93.75 38.75C88.5 41.875 82.0625 43.75 75 43.75C64.375 43.75 54.9375 39.5 49.3125 33L22.375 59.875L31.25 68.75L50 56.25H56.25V118.75H93.75V56.25H100L118.75 68.75L127.625 59.875Z" fill="black" stroke="black"/>
</svg>
