<svg width="60" height="30" viewBox="0 0 60 30" fill="none" xmlns="http://www.w3.org/2000/svg">
<rect width="60" height="30" rx="5" fill="black"/>
<path d="M14.8633 15.168V17.25C14.793 17.3542 14.681 17.4714 14.5273 17.6016C14.3737 17.7292 14.1615 17.8411 13.8906 17.9375C13.6224 18.0312 13.276 18.0781 12.8516 18.0781C12.5052 18.0781 12.1862 18.0182 11.8945 17.8984C11.6055 17.776 11.3542 17.599 11.1406 17.3672C10.9297 17.1328 10.7656 16.849 10.6484 16.5156C10.5339 16.1797 10.4766 15.7995 10.4766 15.375V14.9336C10.4766 14.5091 10.526 14.1302 10.625 13.7969C10.7266 13.4635 10.875 13.181 11.0703 12.9492C11.2656 12.7148 11.5052 12.5378 11.7891 12.418C12.0729 12.2956 12.3984 12.2344 12.7656 12.2344C13.2005 12.2344 13.5638 12.3099 13.8555 12.4609C14.1497 12.6094 14.3789 12.8151 14.543 13.0781C14.7096 13.3411 14.8164 13.6406 14.8633 13.9766H14.1094C14.0755 13.7708 14.0078 13.5833 13.9062 13.4141C13.8073 13.2448 13.6654 13.1094 13.4805 13.0078C13.2956 12.9036 13.0573 12.8516 12.7656 12.8516C12.5026 12.8516 12.2747 12.8997 12.082 12.9961C11.8893 13.0924 11.7305 13.2305 11.6055 13.4102C11.4805 13.5898 11.3867 13.8073 11.3242 14.0625C11.2643 14.3177 11.2344 14.6055 11.2344 14.9258V15.375C11.2344 15.7031 11.2721 15.9961 11.3477 16.2539C11.4258 16.5117 11.5365 16.7318 11.6797 16.9141C11.8229 17.0938 11.9935 17.2305 12.1914 17.3242C12.3919 17.418 12.6133 17.4648 12.8555 17.4648C13.1237 17.4648 13.3411 17.4427 13.5078 17.3984C13.6745 17.3516 13.8047 17.2969 13.8984 17.2344C13.9922 17.1693 14.0638 17.1081 14.1133 17.0508V15.7773H12.7969V15.168H14.8633ZM20.2266 17.3867V18H17.2148V17.3867H20.2266ZM17.3672 12.3125V18H16.6133V12.3125H17.3672ZM19.8281 14.7578V15.3711H17.2148V14.7578H19.8281ZM20.1875 12.3125V12.9297H17.2148V12.3125H20.1875ZM23.8398 12.3125V18H23.0977V12.3125H23.8398ZM25.668 12.3125V12.9297H21.2734V12.3125H25.668ZM32.7734 16.1914H33.5234C33.4844 16.5508 33.3815 16.8724 33.2148 17.1562C33.0482 17.4401 32.8125 17.6654 32.5078 17.832C32.2031 17.9961 31.8229 18.0781 31.3672 18.0781C31.0339 18.0781 30.7305 18.0156 30.457 17.8906C30.1862 17.7656 29.9531 17.5885 29.7578 17.3594C29.5625 17.1276 29.4115 16.8503 29.3047 16.5273C29.2005 16.2018 29.1484 15.8398 29.1484 15.4414V14.875C29.1484 14.4766 29.2005 14.1159 29.3047 13.793C29.4115 13.4674 29.5638 13.1888 29.7617 12.957C29.9622 12.7253 30.2031 12.5469 30.4844 12.4219C30.7656 12.2969 31.082 12.2344 31.4336 12.2344C31.8633 12.2344 32.2266 12.3151 32.5234 12.4766C32.8203 12.638 33.0508 12.862 33.2148 13.1484C33.3815 13.4323 33.4844 13.7617 33.5234 14.1367H32.7734C32.737 13.8711 32.6693 13.6432 32.5703 13.4531C32.4714 13.2604 32.3307 13.112 32.1484 13.0078C31.9661 12.9036 31.7279 12.8516 31.4336 12.8516C31.181 12.8516 30.9583 12.8997 30.7656 12.9961C30.5755 13.0924 30.4154 13.2292 30.2852 13.4062C30.1576 13.5833 30.0612 13.7956 29.9961 14.043C29.931 14.2904 29.8984 14.5651 29.8984 14.8672V15.4414C29.8984 15.7201 29.9271 15.9818 29.9844 16.2266C30.0443 16.4714 30.1341 16.6862 30.2539 16.8711C30.3737 17.056 30.526 17.2018 30.7109 17.3086C30.8958 17.4128 31.1146 17.4648 31.3672 17.4648C31.6875 17.4648 31.9427 17.4141 32.1328 17.3125C32.3229 17.2109 32.4661 17.0651 32.5625 16.875C32.6615 16.6849 32.7318 16.457 32.7734 16.1914ZM39.4297 14.9766V15.3359C39.4297 15.763 39.3763 16.1458 39.2695 16.4844C39.1628 16.8229 39.0091 17.1107 38.8086 17.3477C38.6081 17.5846 38.3672 17.7656 38.0859 17.8906C37.8073 18.0156 37.4948 18.0781 37.1484 18.0781C36.8125 18.0781 36.5039 18.0156 36.2227 17.8906C35.944 17.7656 35.7018 17.5846 35.4961 17.3477C35.293 17.1107 35.1354 16.8229 35.0234 16.4844C34.9115 16.1458 34.8555 15.763 34.8555 15.3359V14.9766C34.8555 14.5495 34.9102 14.168 35.0195 13.832C35.1315 13.4935 35.2891 13.2057 35.4922 12.9688C35.6953 12.7292 35.9362 12.5469 36.2148 12.4219C36.4961 12.2969 36.8047 12.2344 37.1406 12.2344C37.487 12.2344 37.7995 12.2969 38.0781 12.4219C38.3594 12.5469 38.6003 12.7292 38.8008 12.9688C39.0039 13.2057 39.1589 13.4935 39.2656 13.832C39.375 14.168 39.4297 14.5495 39.4297 14.9766ZM38.6836 15.3359V14.9688C38.6836 14.6302 38.6484 14.3307 38.5781 14.0703C38.5104 13.8099 38.4102 13.5911 38.2773 13.4141C38.1445 13.237 37.9818 13.1029 37.7891 13.0117C37.599 12.9206 37.3828 12.875 37.1406 12.875C36.9062 12.875 36.694 12.9206 36.5039 13.0117C36.3164 13.1029 36.1549 13.237 36.0195 13.4141C35.8867 13.5911 35.7839 13.8099 35.7109 14.0703C35.638 14.3307 35.6016 14.6302 35.6016 14.9688V15.3359C35.6016 15.6771 35.638 15.9792 35.7109 16.2422C35.7839 16.5026 35.888 16.7227 36.0234 16.9023C36.1615 17.0794 36.3242 17.2135 36.5117 17.3047C36.7018 17.3958 36.9141 17.4414 37.1484 17.4414C37.3932 17.4414 37.6107 17.3958 37.8008 17.3047C37.9909 17.2135 38.151 17.0794 38.2812 16.9023C38.4141 16.7227 38.5143 16.5026 38.582 16.2422C38.6497 15.9792 38.6836 15.6771 38.6836 15.3359ZM42.5977 18H41.4102L41.418 17.3867H42.5977C43.0039 17.3867 43.3424 17.3021 43.6133 17.1328C43.8841 16.9609 44.0872 16.7214 44.2227 16.4141C44.3607 16.1042 44.4297 15.7422 44.4297 15.3281V14.9805C44.4297 14.6549 44.3906 14.3659 44.3125 14.1133C44.2344 13.8581 44.1198 13.6432 43.9688 13.4688C43.8177 13.2917 43.6328 13.1576 43.4141 13.0664C43.1979 12.9753 42.9492 12.9297 42.668 12.9297H41.3867V12.3125H42.668C43.0404 12.3125 43.3802 12.375 43.6875 12.5C43.9948 12.6224 44.2591 12.8008 44.4805 13.0352C44.7044 13.2669 44.8763 13.5482 44.9961 13.8789C45.1159 14.207 45.1758 14.5768 45.1758 14.9883V15.3281C45.1758 15.7396 45.1159 16.1107 44.9961 16.4414C44.8763 16.7695 44.7031 17.0495 44.4766 17.2812C44.2526 17.513 43.9818 17.6914 43.6641 17.8164C43.349 17.9388 42.9935 18 42.5977 18ZM41.8125 12.3125V18H41.0586V12.3125H41.8125ZM50.4219 17.3867V18H47.4102V17.3867H50.4219ZM47.5625 12.3125V18H46.8086V12.3125H47.5625ZM50.0234 14.7578V15.3711H47.4102V14.7578H50.0234ZM50.3828 12.3125V12.9297H47.4102V12.3125H50.3828Z" fill="white"/>
</svg>
