<svg width="108" height="48" viewBox="0 0 108 48" fill="none" xmlns="http://www.w3.org/2000/svg">
<g filter="url(#filter0_d_24_3809)">
<g clip-path="url(#clip0_24_3809)">
<rect x="4" width="100" height="40" rx="10" fill="#424242"/>
<path d="M35.7467 22.4365C35.7467 22.2314 35.7148 22.0492 35.651 21.8896C35.5917 21.7301 35.4846 21.5843 35.3297 21.4521C35.1747 21.32 34.956 21.1924 34.6734 21.0693C34.3954 20.9417 34.04 20.8118 33.607 20.6797C33.1331 20.5339 32.6956 20.3721 32.2945 20.1943C31.898 20.012 31.5517 19.8024 31.2555 19.5654C30.9592 19.3239 30.7291 19.0482 30.565 18.7383C30.401 18.4238 30.3189 18.0615 30.3189 17.6514C30.3189 17.2458 30.4033 16.8766 30.5719 16.5439C30.7451 16.2113 30.9889 15.9242 31.3033 15.6826C31.6223 15.4365 31.9983 15.2474 32.4312 15.1152C32.8642 14.9785 33.3427 14.9102 33.8668 14.9102C34.6051 14.9102 35.2408 15.0469 35.774 15.3203C36.3118 15.5938 36.7242 15.9606 37.0113 16.4209C37.303 16.8812 37.4488 17.3893 37.4488 17.9453H35.7467C35.7467 17.6172 35.676 17.3278 35.5348 17.0771C35.398 16.8219 35.1884 16.6214 34.9059 16.4756C34.6279 16.3298 34.2747 16.2568 33.8463 16.2568C33.4407 16.2568 33.1035 16.3184 32.8346 16.4414C32.5657 16.5645 32.3652 16.7308 32.233 16.9404C32.1008 17.1501 32.0348 17.387 32.0348 17.6514C32.0348 17.8382 32.0781 18.0091 32.1646 18.1641C32.2512 18.3145 32.3834 18.4557 32.5611 18.5879C32.7389 18.7155 32.9622 18.8363 33.2311 18.9502C33.4999 19.0641 33.8167 19.1735 34.1812 19.2783C34.7327 19.4424 35.2135 19.6247 35.6236 19.8252C36.0338 20.0212 36.3756 20.2445 36.649 20.4951C36.9225 20.7458 37.1275 21.0306 37.2643 21.3496C37.401 21.6641 37.4693 22.0218 37.4693 22.4229C37.4693 22.8421 37.385 23.2204 37.2164 23.5576C37.0478 23.8903 36.8062 24.1751 36.4918 24.4121C36.1819 24.6445 35.8082 24.8245 35.3707 24.9521C34.9378 25.0752 34.4547 25.1367 33.9215 25.1367C33.443 25.1367 32.9713 25.0729 32.5064 24.9453C32.0462 24.8177 31.6269 24.624 31.2486 24.3643C30.8704 24.0999 30.5696 23.7718 30.3463 23.3799C30.123 22.9834 30.0113 22.5208 30.0113 21.9922H31.7271C31.7271 22.3158 31.7818 22.5915 31.8912 22.8193C32.0051 23.0472 32.1624 23.234 32.3629 23.3799C32.5634 23.5212 32.7958 23.626 33.0602 23.6943C33.329 23.7627 33.6161 23.7969 33.9215 23.7969C34.3225 23.7969 34.6575 23.7399 34.9264 23.626C35.1998 23.512 35.4049 23.3525 35.5416 23.1475C35.6783 22.9424 35.7467 22.7054 35.7467 22.4365ZM40.6865 17.6035V25H39.0322V17.6035H40.6865ZM38.9229 15.6621C38.9229 15.4115 39.0049 15.2041 39.1689 15.04C39.3376 14.8714 39.57 14.7871 39.8662 14.7871C40.1579 14.7871 40.388 14.8714 40.5566 15.04C40.7253 15.2041 40.8096 15.4115 40.8096 15.6621C40.8096 15.9082 40.7253 16.1133 40.5566 16.2773C40.388 16.4414 40.1579 16.5234 39.8662 16.5234C39.57 16.5234 39.3376 16.4414 39.1689 16.2773C39.0049 16.1133 38.9229 15.9082 38.9229 15.6621ZM47.3285 17.6035H48.8256V24.7949C48.8256 25.4603 48.6843 26.0254 48.4018 26.4902C48.1192 26.9551 47.725 27.3083 47.2191 27.5498C46.7133 27.7959 46.1277 27.9189 45.4623 27.9189C45.1798 27.9189 44.8653 27.8779 44.5189 27.7959C44.1771 27.7139 43.8445 27.5817 43.5209 27.3994C43.2019 27.2217 42.9353 26.987 42.7211 26.6953L43.4936 25.7246C43.7579 26.0391 44.0495 26.2692 44.3686 26.415C44.6876 26.5609 45.0225 26.6338 45.3734 26.6338C45.7517 26.6338 46.073 26.5632 46.3373 26.4219C46.6062 26.2852 46.8135 26.0824 46.9594 25.8135C47.1052 25.5446 47.1781 25.2165 47.1781 24.8291V19.2783L47.3285 17.6035ZM42.3041 21.3838V21.2402C42.3041 20.6797 42.3725 20.1693 42.5092 19.709C42.6459 19.2441 42.8419 18.8454 43.0971 18.5127C43.3523 18.1755 43.6622 17.918 44.0268 17.7402C44.3913 17.5579 44.8038 17.4668 45.2641 17.4668C45.7426 17.4668 46.1505 17.5534 46.4877 17.7266C46.8295 17.8997 47.1143 18.1481 47.3422 18.4717C47.5701 18.7907 47.7478 19.1735 47.8754 19.6201C48.0076 20.0622 48.1055 20.5544 48.1693 21.0967V21.5547C48.1101 22.0833 48.0098 22.5664 47.8686 23.0039C47.7273 23.4414 47.5404 23.8197 47.308 24.1387C47.0756 24.4577 46.7885 24.7038 46.4467 24.877C46.1094 25.0501 45.7107 25.1367 45.2504 25.1367C44.7992 25.1367 44.3913 25.0433 44.0268 24.8564C43.6667 24.6696 43.3568 24.4076 43.0971 24.0703C42.8419 23.7331 42.6459 23.3366 42.5092 22.8809C42.3725 22.4206 42.3041 21.9215 42.3041 21.3838ZM43.9516 21.2402V21.3838C43.9516 21.721 43.9835 22.0355 44.0473 22.3271C44.1156 22.6188 44.2182 22.8763 44.3549 23.0996C44.4962 23.3184 44.6739 23.4915 44.8881 23.6191C45.1068 23.7422 45.3643 23.8037 45.6605 23.8037C46.0479 23.8037 46.3646 23.7217 46.6107 23.5576C46.8614 23.3936 47.0528 23.1725 47.185 22.8945C47.3217 22.612 47.4174 22.2975 47.4721 21.9512V20.7139C47.4447 20.445 47.3878 20.1943 47.3012 19.9619C47.2191 19.7295 47.1075 19.5267 46.9662 19.3535C46.8249 19.1758 46.6472 19.0391 46.433 18.9434C46.2188 18.8431 45.9659 18.793 45.6742 18.793C45.378 18.793 45.1205 18.8568 44.9018 18.9844C44.683 19.112 44.503 19.2874 44.3617 19.5107C44.225 19.734 44.1225 19.9938 44.0541 20.29C43.9857 20.5863 43.9516 20.903 43.9516 21.2402ZM52.2684 19.1826V25H50.6209V17.6035H52.1727L52.2684 19.1826ZM51.9744 21.0283L51.4412 21.0215C51.4458 20.4974 51.5187 20.0166 51.66 19.5791C51.8058 19.1416 52.0063 18.7656 52.2615 18.4512C52.5213 18.1367 52.8312 17.8952 53.1912 17.7266C53.5512 17.5534 53.9523 17.4668 54.3943 17.4668C54.7498 17.4668 55.0711 17.5169 55.3582 17.6172C55.6499 17.7129 55.8982 17.8701 56.1033 18.0889C56.313 18.3076 56.4725 18.5924 56.5818 18.9434C56.6912 19.2897 56.7459 19.7158 56.7459 20.2217V25H55.0916V20.2148C55.0916 19.8594 55.0392 19.5791 54.9344 19.374C54.8341 19.1644 54.686 19.0163 54.49 18.9297C54.2986 18.8385 54.0594 18.793 53.7723 18.793C53.4897 18.793 53.2368 18.8522 53.0135 18.9707C52.7902 19.0892 52.601 19.251 52.4461 19.4561C52.2957 19.6611 52.1795 19.8981 52.0975 20.167C52.0154 20.4359 51.9744 20.723 51.9744 21.0283ZM67.8629 15.0469H69.5719V21.6982C69.5719 22.4548 69.4078 23.0882 69.0797 23.5986C68.7516 24.109 68.3049 24.4941 67.7398 24.7539C67.1793 25.0091 66.5527 25.1367 65.86 25.1367C65.1445 25.1367 64.5064 25.0091 63.9459 24.7539C63.3854 24.4941 62.9433 24.109 62.6197 23.5986C62.3007 23.0882 62.1412 22.4548 62.1412 21.6982V15.0469H63.8502V21.6982C63.8502 22.1768 63.9322 22.571 64.0963 22.8809C64.2604 23.1862 64.4928 23.4118 64.7936 23.5576C65.0943 23.7035 65.4498 23.7764 65.86 23.7764C66.2701 23.7764 66.6233 23.7035 66.9195 23.5576C67.2203 23.4118 67.4527 23.1862 67.6168 22.8809C67.7809 22.571 67.8629 22.1768 67.8629 21.6982V15.0469ZM73.0283 19.0254V27.8438H71.3809V17.6035H72.8984L73.0283 19.0254ZM77.8477 21.2334V21.377C77.8477 21.9147 77.7839 22.4137 77.6562 22.874C77.5332 23.3298 77.3486 23.7285 77.1025 24.0703C76.861 24.4076 76.5625 24.6696 76.207 24.8564C75.8516 25.0433 75.4414 25.1367 74.9766 25.1367C74.5163 25.1367 74.113 25.0524 73.7666 24.8838C73.4248 24.7106 73.1354 24.4668 72.8984 24.1523C72.6615 23.8379 72.4701 23.4688 72.3242 23.0449C72.1829 22.6165 72.0827 22.1471 72.0234 21.6367V21.083C72.0827 20.5407 72.1829 20.0485 72.3242 19.6064C72.4701 19.1644 72.6615 18.7839 72.8984 18.4648C73.1354 18.1458 73.4248 17.8997 73.7666 17.7266C74.1084 17.5534 74.5072 17.4668 74.9629 17.4668C75.4277 17.4668 75.8402 17.5579 76.2002 17.7402C76.5602 17.918 76.8633 18.1732 77.1094 18.5059C77.3555 18.834 77.54 19.2305 77.6631 19.6953C77.7861 20.1556 77.8477 20.6683 77.8477 21.2334ZM76.2002 21.377V21.2334C76.2002 20.8916 76.1683 20.5749 76.1045 20.2832C76.0407 19.987 75.9404 19.7272 75.8037 19.5039C75.667 19.2806 75.4915 19.1074 75.2773 18.9844C75.0677 18.8568 74.8148 18.793 74.5186 18.793C74.2269 18.793 73.9762 18.8431 73.7666 18.9434C73.557 19.0391 73.3815 19.1735 73.2402 19.3467C73.099 19.5199 72.9896 19.7227 72.9121 19.9551C72.8346 20.1829 72.7799 20.4313 72.748 20.7002V22.0264C72.8027 22.3545 72.8962 22.6553 73.0283 22.9287C73.1605 23.2021 73.3473 23.4209 73.5889 23.585C73.835 23.7445 74.1494 23.8242 74.5322 23.8242C74.8285 23.8242 75.0814 23.7604 75.291 23.6328C75.5007 23.5052 75.6715 23.3298 75.8037 23.1064C75.9404 22.8786 76.0407 22.6165 76.1045 22.3203C76.1683 22.0241 76.2002 21.7096 76.2002 21.377Z" fill="white"/>
</g>
</g>
<defs>
<filter id="filter0_d_24_3809" x="0" y="0" width="108" height="48" filterUnits="userSpaceOnUse" color-interpolation-filters="sRGB">
<feFlood flood-opacity="0" result="BackgroundImageFix"/>
<feColorMatrix in="SourceAlpha" type="matrix" values="0 0 0 0 0 0 0 0 0 0 0 0 0 0 0 0 0 0 127 0" result="hardAlpha"/>
<feOffset dy="4"/>
<feGaussianBlur stdDeviation="2"/>
<feComposite in2="hardAlpha" operator="out"/>
<feColorMatrix type="matrix" values="0 0 0 0 0 0 0 0 0 0 0 0 0 0 0 0 0 0 0.25 0"/>
<feBlend mode="normal" in2="BackgroundImageFix" result="effect1_dropShadow_24_3809"/>
<feBlend mode="normal" in="SourceGraphic" in2="effect1_dropShadow_24_3809" result="shape"/>
</filter>
<clipPath id="clip0_24_3809">
<rect x="4" width="100" height="40" rx="10" fill="white"/>
</clipPath>
</defs>
</svg>
