<svg width="200" height="50" viewBox="0 0 200 50" fill="none" xmlns="http://www.w3.org/2000/svg">
<g clip-path="url(#clip0_24_4854)">
<mask id="path-1-outside-1_24_4854" maskUnits="userSpaceOnUse" x="27" y="9" width="148" height="43" fill="black">
<rect fill="white" x="27" y="9" width="148" height="43"/>
<path d="M28.9536 41V39.32H29.4736C30.0869 39.32 30.6336 39.2533 31.1136 39.12C31.6203 38.9867 32.0203 38.72 32.3136 38.32C32.6069 37.8933 32.7536 37.2667 32.7536 36.44V16.84C32.7536 16.04 32.5936 15.4533 32.2736 15.08C31.9803 14.68 31.5803 14.4267 31.0736 14.32C30.5936 14.1867 30.0603 14.12 29.4736 14.12H28.9536V12.44H41.1936C43.9403 12.44 46.2869 13 48.2336 14.12C50.1803 15.2133 51.6603 16.8267 52.6736 18.96C53.7136 21.0667 54.2336 23.64 54.2336 26.68C54.2336 29.5867 53.7403 32.12 52.7536 34.28C51.7936 36.4133 50.3536 38.0667 48.4336 39.24C46.5136 40.4133 44.1003 41 41.1936 41H28.9536ZM40.2736 38.96C42.4069 38.96 44.1669 38.4933 45.5536 37.56C46.9669 36.6 48.0203 35.2133 48.7136 33.4C49.4336 31.56 49.7936 29.32 49.7936 26.68C49.7936 24.04 49.4336 21.8133 48.7136 20C48.0203 18.1867 46.9669 16.8133 45.5536 15.88C44.1669 14.92 42.4203 14.44 40.3136 14.44H36.7936V38.96H40.2736ZM57.8161 41V39.32H57.9361C58.5494 39.32 59.0961 39.2533 59.5761 39.12C60.0828 38.9867 60.4828 38.72 60.7761 38.32C61.0694 37.8933 61.2161 37.2667 61.2161 36.44V23.96C61.2161 23.16 61.0561 22.5733 60.7361 22.2C60.4428 21.8 60.0428 21.5467 59.5361 21.44C59.0561 21.3067 58.5228 21.24 57.9361 21.24H57.8161V19.56H63.9761L64.7361 23.52H64.9361C65.2828 22.72 65.6561 21.9867 66.0561 21.32C66.4561 20.6533 66.9894 20.1333 67.6561 19.76C68.3228 19.36 69.2428 19.16 70.4161 19.16C71.8828 19.16 72.9628 19.4133 73.6561 19.92C74.3761 20.4267 74.7361 21.1467 74.7361 22.08C74.7361 22.9067 74.4428 23.5867 73.8561 24.12C73.2961 24.6533 72.3494 24.92 71.0161 24.92C71.0161 24.1733 70.9494 23.5733 70.8161 23.12C70.6828 22.6667 70.4561 22.3333 70.1361 22.12C69.8428 21.9067 69.4294 21.8 68.8961 21.8C68.1494 21.8 67.5228 22.0933 67.0161 22.68C66.5094 23.2667 66.1094 24.0133 65.8161 24.92C65.5228 25.8267 65.3094 26.7733 65.1761 27.76C65.0428 28.72 64.9761 29.5867 64.9761 30.36V36.64C64.9761 37.4133 65.1228 38 65.4161 38.4C65.7361 38.7733 66.1361 39.0267 66.6161 39.16C67.1228 39.2667 67.6694 39.32 68.2561 39.32H69.3761V41H57.8161ZM76.2442 41V39.32H76.7642C77.3509 39.32 77.8842 39.2667 78.3642 39.16C78.8709 39.0267 79.2709 38.7733 79.5642 38.4C79.8842 38 80.0442 37.4133 80.0442 36.64V23.96C80.0442 23.16 79.8842 22.5733 79.5642 22.2C79.2709 21.8 78.8709 21.5467 78.3642 21.44C77.8842 21.3067 77.3509 21.24 76.7642 21.24H76.6442V19.56H83.8042V36.44C83.8042 37.2667 83.9509 37.8933 84.2442 38.32C84.5376 38.72 84.9376 38.9867 85.4442 39.12C85.9509 39.2533 86.4976 39.32 87.0842 39.32H87.6042V41H76.2442ZM81.7642 15.56C81.1242 15.56 80.5776 15.3733 80.1242 15C79.6976 14.6267 79.4842 13.9867 79.4842 13.08C79.4842 12.1467 79.6976 11.5067 80.1242 11.16C80.5776 10.7867 81.1242 10.6 81.7642 10.6C82.3776 10.6 82.9109 10.7867 83.3642 11.16C83.8176 11.5067 84.0442 12.1467 84.0442 13.08C84.0442 13.9867 83.8176 14.6267 83.3642 15C82.9109 15.3733 82.3776 15.56 81.7642 15.56ZM88.8567 50.6V48.92H89.1767C89.7901 48.92 90.3367 48.8533 90.8167 48.72C91.3234 48.5867 91.7234 48.3067 92.0167 47.88C92.3101 47.48 92.4567 46.8667 92.4567 46.04V23.96C92.4567 23.16 92.2967 22.5733 91.9767 22.2C91.6834 21.8 91.2834 21.5467 90.7767 21.44C90.2967 21.3067 89.7634 21.24 89.1767 21.24H88.6567V19.56H95.6567L96.0567 23.16H96.2167C96.8301 21.9333 97.6167 20.96 98.5767 20.24C99.5367 19.52 100.79 19.16 102.337 19.16C104.977 19.16 106.99 20.0533 108.377 21.84C109.79 23.6 110.497 26.4 110.497 30.24C110.497 34.1067 109.79 36.9333 108.377 38.72C106.99 40.5067 104.977 41.4 102.337 41.4C100.79 41.4 99.5234 41.08 98.5367 40.44C97.5767 39.7733 96.8034 38.92 96.2167 37.88H96.0567C96.1101 38.3867 96.1367 38.9333 96.1367 39.52C96.1634 40.08 96.1767 40.6133 96.1767 41.12C96.2034 41.6267 96.2167 42.0533 96.2167 42.4V46.24C96.2167 47.0133 96.3634 47.5867 96.6567 47.96C96.9767 48.36 97.3767 48.6133 97.8567 48.72C98.3634 48.8533 98.9101 48.92 99.4967 48.92H99.6167V50.6H88.8567ZM101.697 38.84C102.87 38.84 103.817 38.5067 104.537 37.84C105.257 37.1733 105.777 36.2 106.097 34.92C106.443 33.64 106.617 32.0667 106.617 30.2C106.617 28.3067 106.443 26.7333 106.097 25.48C105.777 24.2267 105.257 23.2933 104.537 22.68C103.817 22.04 102.857 21.72 101.657 21.72C100.27 21.72 99.1767 22.0267 98.3767 22.64C97.6034 23.2533 97.0434 24.2 96.6967 25.48C96.3767 26.7333 96.2167 28.32 96.2167 30.24C96.2167 32.08 96.3767 33.64 96.6967 34.92C97.0434 36.2 97.6167 37.1733 98.4167 37.84C99.2167 38.5067 100.31 38.84 101.697 38.84ZM114.227 41V39.32H114.747C115.36 39.32 115.907 39.2533 116.387 39.12C116.894 38.9867 117.294 38.72 117.587 38.32C117.88 37.8933 118.027 37.2667 118.027 36.44V17C118.027 16.1467 117.88 15.52 117.587 15.12C117.294 14.72 116.894 14.4533 116.387 14.32C115.907 14.1867 115.36 14.12 114.747 14.12H114.227V12.44H125.867V14.12H125.347C124.76 14.12 124.214 14.1867 123.707 14.32C123.227 14.4267 122.827 14.68 122.507 15.08C122.214 15.4533 122.067 16.04 122.067 16.84V39H129.947C130.747 39 131.387 38.8267 131.867 38.48C132.374 38.1067 132.747 37.64 132.987 37.08C133.227 36.52 133.387 35.96 133.467 35.4L133.867 32.4H135.947L135.667 41H114.227ZM138.549 41V39.32H139.069C139.656 39.32 140.189 39.2667 140.669 39.16C141.176 39.0267 141.576 38.7733 141.869 38.4C142.189 38 142.349 37.4133 142.349 36.64V23.96C142.349 23.16 142.189 22.5733 141.869 22.2C141.576 21.8 141.176 21.5467 140.669 21.44C140.189 21.3067 139.656 21.24 139.069 21.24H138.949V19.56H146.109V36.44C146.109 37.2667 146.256 37.8933 146.549 38.32C146.842 38.72 147.242 38.9867 147.749 39.12C148.256 39.2533 148.802 39.32 149.389 39.32H149.909V41H138.549ZM144.069 15.56C143.429 15.56 142.882 15.3733 142.429 15C142.002 14.6267 141.789 13.9867 141.789 13.08C141.789 12.1467 142.002 11.5067 142.429 11.16C142.882 10.7867 143.429 10.6 144.069 10.6C144.682 10.6 145.216 10.7867 145.669 11.16C146.122 11.5067 146.349 12.1467 146.349 13.08C146.349 13.9867 146.122 14.6267 145.669 15C145.216 15.3733 144.682 15.56 144.069 15.56ZM150.641 41V39.32H151.001C151.641 39.32 152.188 39.2533 152.641 39.12C153.095 38.96 153.535 38.6933 153.961 38.32C154.388 37.9467 154.855 37.4267 155.361 36.76L160.401 30.24L155.361 23.36C154.988 22.9067 154.601 22.52 154.201 22.2C153.828 21.88 153.455 21.64 153.081 21.48C152.708 21.32 152.321 21.24 151.921 21.24H151.401V19.56H161.561V21.24H161.441C160.535 21.24 159.921 21.36 159.601 21.6C159.308 21.8133 159.161 22.08 159.161 22.4C159.161 22.6667 159.241 22.9333 159.401 23.2C159.561 23.4667 159.788 23.8133 160.081 24.24L162.721 27.84L164.801 24.84C165.095 24.3867 165.335 23.96 165.521 23.56C165.708 23.1333 165.801 22.7467 165.801 22.4C165.801 21.92 165.588 21.6133 165.161 21.48C164.761 21.32 164.255 21.24 163.641 21.24H163.521V19.56H172.281V21.24H171.921C171.415 21.24 170.948 21.3067 170.521 21.44C170.121 21.5467 169.708 21.7867 169.281 22.16C168.881 22.5333 168.415 23.08 167.881 23.8L163.761 29.28L169.641 37.2C170.041 37.7067 170.415 38.12 170.761 38.44C171.135 38.76 171.495 38.9867 171.841 39.12C172.188 39.2533 172.521 39.32 172.841 39.32H173.361V41H163.041V39.32H163.241C164.041 39.32 164.641 39.2133 165.041 39C165.441 38.76 165.641 38.4267 165.641 38C165.641 37.7067 165.535 37.3867 165.321 37.04C165.135 36.6667 164.735 36.0667 164.121 35.24L161.441 31.64L158.641 35.56C158.401 35.88 158.161 36.28 157.921 36.76C157.681 37.2133 157.561 37.6533 157.561 38.08C157.561 38.5067 157.748 38.8267 158.121 39.04C158.521 39.2267 159.161 39.32 160.041 39.32H160.161V41H150.641Z"/>
</mask>
<path d="M28.9536 41V39.32H29.4736C30.0869 39.32 30.6336 39.2533 31.1136 39.12C31.6203 38.9867 32.0203 38.72 32.3136 38.32C32.6069 37.8933 32.7536 37.2667 32.7536 36.44V16.84C32.7536 16.04 32.5936 15.4533 32.2736 15.08C31.9803 14.68 31.5803 14.4267 31.0736 14.32C30.5936 14.1867 30.0603 14.12 29.4736 14.12H28.9536V12.44H41.1936C43.9403 12.44 46.2869 13 48.2336 14.12C50.1803 15.2133 51.6603 16.8267 52.6736 18.96C53.7136 21.0667 54.2336 23.64 54.2336 26.68C54.2336 29.5867 53.7403 32.12 52.7536 34.28C51.7936 36.4133 50.3536 38.0667 48.4336 39.24C46.5136 40.4133 44.1003 41 41.1936 41H28.9536ZM40.2736 38.96C42.4069 38.96 44.1669 38.4933 45.5536 37.56C46.9669 36.6 48.0203 35.2133 48.7136 33.4C49.4336 31.56 49.7936 29.32 49.7936 26.68C49.7936 24.04 49.4336 21.8133 48.7136 20C48.0203 18.1867 46.9669 16.8133 45.5536 15.88C44.1669 14.92 42.4203 14.44 40.3136 14.44H36.7936V38.96H40.2736ZM57.8161 41V39.32H57.9361C58.5494 39.32 59.0961 39.2533 59.5761 39.12C60.0828 38.9867 60.4828 38.72 60.7761 38.32C61.0694 37.8933 61.2161 37.2667 61.2161 36.44V23.96C61.2161 23.16 61.0561 22.5733 60.7361 22.2C60.4428 21.8 60.0428 21.5467 59.5361 21.44C59.0561 21.3067 58.5228 21.24 57.9361 21.24H57.8161V19.56H63.9761L64.7361 23.52H64.9361C65.2828 22.72 65.6561 21.9867 66.0561 21.32C66.4561 20.6533 66.9894 20.1333 67.6561 19.76C68.3228 19.36 69.2428 19.16 70.4161 19.16C71.8828 19.16 72.9628 19.4133 73.6561 19.92C74.3761 20.4267 74.7361 21.1467 74.7361 22.08C74.7361 22.9067 74.4428 23.5867 73.8561 24.12C73.2961 24.6533 72.3494 24.92 71.0161 24.92C71.0161 24.1733 70.9494 23.5733 70.8161 23.12C70.6828 22.6667 70.4561 22.3333 70.1361 22.12C69.8428 21.9067 69.4294 21.8 68.8961 21.8C68.1494 21.8 67.5228 22.0933 67.0161 22.68C66.5094 23.2667 66.1094 24.0133 65.8161 24.92C65.5228 25.8267 65.3094 26.7733 65.1761 27.76C65.0428 28.72 64.9761 29.5867 64.9761 30.36V36.64C64.9761 37.4133 65.1228 38 65.4161 38.4C65.7361 38.7733 66.1361 39.0267 66.6161 39.16C67.1228 39.2667 67.6694 39.32 68.2561 39.32H69.3761V41H57.8161ZM76.2442 41V39.32H76.7642C77.3509 39.32 77.8842 39.2667 78.3642 39.16C78.8709 39.0267 79.2709 38.7733 79.5642 38.4C79.8842 38 80.0442 37.4133 80.0442 36.64V23.96C80.0442 23.16 79.8842 22.5733 79.5642 22.2C79.2709 21.8 78.8709 21.5467 78.3642 21.44C77.8842 21.3067 77.3509 21.24 76.7642 21.24H76.6442V19.56H83.8042V36.44C83.8042 37.2667 83.9509 37.8933 84.2442 38.32C84.5376 38.72 84.9376 38.9867 85.4442 39.12C85.9509 39.2533 86.4976 39.32 87.0842 39.32H87.6042V41H76.2442ZM81.7642 15.56C81.1242 15.56 80.5776 15.3733 80.1242 15C79.6976 14.6267 79.4842 13.9867 79.4842 13.08C79.4842 12.1467 79.6976 11.5067 80.1242 11.16C80.5776 10.7867 81.1242 10.6 81.7642 10.6C82.3776 10.6 82.9109 10.7867 83.3642 11.16C83.8176 11.5067 84.0442 12.1467 84.0442 13.08C84.0442 13.9867 83.8176 14.6267 83.3642 15C82.9109 15.3733 82.3776 15.56 81.7642 15.56ZM88.8567 50.6V48.92H89.1767C89.7901 48.92 90.3367 48.8533 90.8167 48.72C91.3234 48.5867 91.7234 48.3067 92.0167 47.88C92.3101 47.48 92.4567 46.8667 92.4567 46.04V23.96C92.4567 23.16 92.2967 22.5733 91.9767 22.2C91.6834 21.8 91.2834 21.5467 90.7767 21.44C90.2967 21.3067 89.7634 21.24 89.1767 21.24H88.6567V19.56H95.6567L96.0567 23.16H96.2167C96.8301 21.9333 97.6167 20.96 98.5767 20.24C99.5367 19.52 100.79 19.16 102.337 19.16C104.977 19.16 106.99 20.0533 108.377 21.84C109.79 23.6 110.497 26.4 110.497 30.24C110.497 34.1067 109.79 36.9333 108.377 38.72C106.99 40.5067 104.977 41.4 102.337 41.4C100.79 41.4 99.5234 41.08 98.5367 40.44C97.5767 39.7733 96.8034 38.92 96.2167 37.88H96.0567C96.1101 38.3867 96.1367 38.9333 96.1367 39.52C96.1634 40.08 96.1767 40.6133 96.1767 41.12C96.2034 41.6267 96.2167 42.0533 96.2167 42.4V46.24C96.2167 47.0133 96.3634 47.5867 96.6567 47.96C96.9767 48.36 97.3767 48.6133 97.8567 48.72C98.3634 48.8533 98.9101 48.92 99.4967 48.92H99.6167V50.6H88.8567ZM101.697 38.84C102.87 38.84 103.817 38.5067 104.537 37.84C105.257 37.1733 105.777 36.2 106.097 34.92C106.443 33.64 106.617 32.0667 106.617 30.2C106.617 28.3067 106.443 26.7333 106.097 25.48C105.777 24.2267 105.257 23.2933 104.537 22.68C103.817 22.04 102.857 21.72 101.657 21.72C100.27 21.72 99.1767 22.0267 98.3767 22.64C97.6034 23.2533 97.0434 24.2 96.6967 25.48C96.3767 26.7333 96.2167 28.32 96.2167 30.24C96.2167 32.08 96.3767 33.64 96.6967 34.92C97.0434 36.2 97.6167 37.1733 98.4167 37.84C99.2167 38.5067 100.31 38.84 101.697 38.84ZM114.227 41V39.32H114.747C115.36 39.32 115.907 39.2533 116.387 39.12C116.894 38.9867 117.294 38.72 117.587 38.32C117.88 37.8933 118.027 37.2667 118.027 36.44V17C118.027 16.1467 117.88 15.52 117.587 15.12C117.294 14.72 116.894 14.4533 116.387 14.32C115.907 14.1867 115.36 14.12 114.747 14.12H114.227V12.44H125.867V14.12H125.347C124.76 14.12 124.214 14.1867 123.707 14.32C123.227 14.4267 122.827 14.68 122.507 15.08C122.214 15.4533 122.067 16.04 122.067 16.84V39H129.947C130.747 39 131.387 38.8267 131.867 38.48C132.374 38.1067 132.747 37.64 132.987 37.08C133.227 36.52 133.387 35.96 133.467 35.4L133.867 32.4H135.947L135.667 41H114.227ZM138.549 41V39.32H139.069C139.656 39.32 140.189 39.2667 140.669 39.16C141.176 39.0267 141.576 38.7733 141.869 38.4C142.189 38 142.349 37.4133 142.349 36.64V23.96C142.349 23.16 142.189 22.5733 141.869 22.2C141.576 21.8 141.176 21.5467 140.669 21.44C140.189 21.3067 139.656 21.24 139.069 21.24H138.949V19.56H146.109V36.44C146.109 37.2667 146.256 37.8933 146.549 38.32C146.842 38.72 147.242 38.9867 147.749 39.12C148.256 39.2533 148.802 39.32 149.389 39.32H149.909V41H138.549ZM144.069 15.56C143.429 15.56 142.882 15.3733 142.429 15C142.002 14.6267 141.789 13.9867 141.789 13.08C141.789 12.1467 142.002 11.5067 142.429 11.16C142.882 10.7867 143.429 10.6 144.069 10.6C144.682 10.6 145.216 10.7867 145.669 11.16C146.122 11.5067 146.349 12.1467 146.349 13.08C146.349 13.9867 146.122 14.6267 145.669 15C145.216 15.3733 144.682 15.56 144.069 15.56ZM150.641 41V39.32H151.001C151.641 39.32 152.188 39.2533 152.641 39.12C153.095 38.96 153.535 38.6933 153.961 38.32C154.388 37.9467 154.855 37.4267 155.361 36.76L160.401 30.24L155.361 23.36C154.988 22.9067 154.601 22.52 154.201 22.2C153.828 21.88 153.455 21.64 153.081 21.48C152.708 21.32 152.321 21.24 151.921 21.24H151.401V19.56H161.561V21.24H161.441C160.535 21.24 159.921 21.36 159.601 21.6C159.308 21.8133 159.161 22.08 159.161 22.4C159.161 22.6667 159.241 22.9333 159.401 23.2C159.561 23.4667 159.788 23.8133 160.081 24.24L162.721 27.84L164.801 24.84C165.095 24.3867 165.335 23.96 165.521 23.56C165.708 23.1333 165.801 22.7467 165.801 22.4C165.801 21.92 165.588 21.6133 165.161 21.48C164.761 21.32 164.255 21.24 163.641 21.24H163.521V19.56H172.281V21.24H171.921C171.415 21.24 170.948 21.3067 170.521 21.44C170.121 21.5467 169.708 21.7867 169.281 22.16C168.881 22.5333 168.415 23.08 167.881 23.8L163.761 29.28L169.641 37.2C170.041 37.7067 170.415 38.12 170.761 38.44C171.135 38.76 171.495 38.9867 171.841 39.12C172.188 39.2533 172.521 39.32 172.841 39.32H173.361V41H163.041V39.32H163.241C164.041 39.32 164.641 39.2133 165.041 39C165.441 38.76 165.641 38.4267 165.641 38C165.641 37.7067 165.535 37.3867 165.321 37.04C165.135 36.6667 164.735 36.0667 164.121 35.24L161.441 31.64L158.641 35.56C158.401 35.88 158.161 36.28 157.921 36.76C157.681 37.2133 157.561 37.6533 157.561 38.08C157.561 38.5067 157.748 38.8267 158.121 39.04C158.521 39.2267 159.161 39.32 160.041 39.32H160.161V41H150.641Z" fill="black"/>
<path d="M28.9536 41H27.9536V42H28.9536V41ZM28.9536 39.32V38.32H27.9536V39.32H28.9536ZM31.1136 39.12L30.8591 38.1528L30.846 38.1565L31.1136 39.12ZM32.3136 38.32L33.12 38.9114L33.129 38.8991L33.1376 38.8865L32.3136 38.32ZM32.2736 15.08L31.4672 15.6714L31.4896 15.702L31.5143 15.7308L32.2736 15.08ZM31.0736 14.32L30.806 15.2835L30.8365 15.292L30.8676 15.2985L31.0736 14.32ZM28.9536 14.12H27.9536V15.12H28.9536V14.12ZM28.9536 12.44V11.44H27.9536V12.44H28.9536ZM48.2336 14.12L47.7349 14.9868L47.7439 14.9919L48.2336 14.12ZM52.6736 18.96L51.7703 19.3891L51.7736 19.3959L51.7769 19.4027L52.6736 18.96ZM52.7536 34.28L51.844 33.8645L51.8417 33.8696L52.7536 34.28ZM48.4336 39.24L48.955 40.0933V40.0933L48.4336 39.24ZM45.5536 37.56L46.112 38.3896L46.1155 38.3872L45.5536 37.56ZM48.7136 33.4L47.7823 33.0356L47.7795 33.0429L48.7136 33.4ZM48.7136 20L47.7795 20.3572L47.7842 20.369L48.7136 20ZM45.5536 15.88L44.9844 16.7022L44.9934 16.7084L45.0025 16.7145L45.5536 15.88ZM36.7936 14.44V13.44H35.7936V14.44H36.7936ZM36.7936 38.96H35.7936V39.96H36.7936V38.96ZM28.9536 41H29.9536V39.32H28.9536H27.9536V41H28.9536ZM28.9536 39.32V40.32H29.4736V39.32V38.32H28.9536V39.32ZM29.4736 39.32V40.32C30.1574 40.32 30.7967 40.2459 31.3812 40.0835L31.1136 39.12L30.846 38.1565C30.4705 38.2608 30.0165 38.32 29.4736 38.32V39.32ZM31.1136 39.12L31.3681 40.0871C32.0829 39.899 32.6832 39.507 33.12 38.9114L32.3136 38.32L31.5072 37.7286C31.3573 37.933 31.1576 38.0744 30.8591 38.1529L31.1136 39.12ZM32.3136 38.32L33.1376 38.8865C33.5954 38.2207 33.7536 37.3582 33.7536 36.44H32.7536H31.7536C31.7536 37.1752 31.6184 37.566 31.4896 37.7535L32.3136 38.32ZM32.7536 36.44H33.7536V16.84H32.7536H31.7536V36.44H32.7536ZM32.7536 16.84H33.7536C33.7536 15.9412 33.5799 15.0674 33.0329 14.4292L32.2736 15.08L31.5143 15.7308C31.6073 15.8393 31.7536 16.1388 31.7536 16.84H32.7536ZM32.2736 15.08L33.08 14.4886C32.6342 13.8807 32.0157 13.4964 31.2796 13.3414L31.0736 14.32L30.8676 15.2985C31.1449 15.3569 31.3263 15.4793 31.4672 15.6714L32.2736 15.08ZM31.0736 14.32L31.3412 13.3565C30.7603 13.1951 30.1351 13.12 29.4736 13.12V14.12V15.12C29.9854 15.12 30.4269 15.1782 30.806 15.2835L31.0736 14.32ZM29.4736 14.12V13.12H28.9536V14.12V15.12H29.4736V14.12ZM28.9536 14.12H29.9536V12.44H28.9536H27.9536V14.12H28.9536ZM28.9536 12.44V13.44H41.1936V12.44V11.44H28.9536V12.44ZM41.1936 12.44V13.44C43.8041 13.44 45.9704 13.9716 47.7349 14.9868L48.2336 14.12L48.7323 13.2532C46.6035 12.0284 44.0765 11.44 41.1936 11.44V12.44ZM48.2336 14.12L47.7439 14.9919C49.4995 15.9779 50.8403 17.4311 51.7703 19.3891L52.6736 18.96L53.5769 18.5309C52.4802 16.2222 50.861 14.4488 48.7233 13.2481L48.2336 14.12ZM52.6736 18.96L51.7769 19.4027C52.732 21.3373 53.2336 23.75 53.2336 26.68H54.2336H55.2336C55.2336 23.53 54.6952 20.796 53.5703 18.5173L52.6736 18.96ZM54.2336 26.68H53.2336C53.2336 29.4747 52.7593 31.8607 51.844 33.8645L52.7536 34.28L53.6632 34.6955C54.7212 32.3793 55.2336 29.6986 55.2336 26.68H54.2336ZM52.7536 34.28L51.8417 33.8696C50.9608 35.8271 49.6533 37.3227 47.9121 38.3867L48.4336 39.24L48.955 40.0933C51.0539 38.8106 52.6264 36.9996 53.6655 34.6904L52.7536 34.28ZM48.4336 39.24L47.9121 38.3867C46.1888 39.4399 43.969 40 41.1936 40V41V42C44.2315 42 46.8384 41.3868 48.955 40.0933L48.4336 39.24ZM41.1936 41V40H28.9536V41V42H41.1936V41ZM40.2736 38.96V39.96C42.5511 39.96 44.5201 39.4611 46.112 38.3896L45.5536 37.56L44.9952 36.7304C43.8138 37.5256 42.2627 37.96 40.2736 37.96V38.96ZM45.5536 37.56L46.1155 38.3872C47.7205 37.297 48.8916 35.7345 49.6476 33.7571L48.7136 33.4L47.7795 33.0429C47.1489 34.6921 46.2134 35.903 44.9917 36.7328L45.5536 37.56ZM48.7136 33.4L49.6448 33.7644C50.4227 31.7765 50.7936 29.4052 50.7936 26.68H49.7936H48.7936C48.7936 29.2348 48.4445 31.3435 47.7824 33.0356L48.7136 33.4ZM49.7936 26.68H50.7936C50.7936 23.9555 50.4229 21.5952 49.643 19.631L48.7136 20L47.7842 20.369C48.4443 22.0314 48.7936 24.1245 48.7936 26.68H49.7936ZM48.7136 20L49.6476 19.6429C48.891 17.6639 47.7171 16.1104 46.1047 15.0455L45.5536 15.88L45.0025 16.7145C46.2167 17.5163 47.1495 18.7094 47.7795 20.3571L48.7136 20ZM45.5536 15.88L46.1228 15.0578C44.5314 13.9561 42.5727 13.44 40.3136 13.44V14.44V15.44C42.2678 15.44 43.8025 15.8839 44.9844 16.7022L45.5536 15.88ZM40.3136 14.44V13.44H36.7936V14.44V15.44H40.3136V14.44ZM36.7936 14.44H35.7936V38.96H36.7936H37.7936V14.44H36.7936ZM36.7936 38.96V39.96H40.2736V38.96V37.96H36.7936V38.96ZM57.8161 41H56.8161V42H57.8161V41ZM57.8161 39.32V38.32H56.8161V39.32H57.8161ZM59.5761 39.12L59.3216 38.1528L59.3084 38.1565L59.5761 39.12ZM60.7761 38.32L61.5825 38.9114L61.5915 38.8991L61.6001 38.8865L60.7761 38.32ZM60.7361 22.2L59.9297 22.7914L59.9521 22.822L59.9768 22.8508L60.7361 22.2ZM59.5361 21.44L59.2685 22.4035L59.299 22.412L59.3301 22.4185L59.5361 21.44ZM57.8161 21.24H56.8161V22.24H57.8161V21.24ZM57.8161 19.56V18.56H56.8161V19.56H57.8161ZM63.9761 19.56L64.9582 19.3715L64.8024 18.56H63.9761V19.56ZM64.7361 23.52L63.754 23.7085L63.9098 24.52H64.7361V23.52ZM64.9361 23.52V24.52H65.5926L65.8536 23.9176L64.9361 23.52ZM66.0561 21.32L66.9136 21.8345L66.0561 21.32ZM67.6561 19.76L68.1447 20.6325L68.1578 20.6252L68.1706 20.6175L67.6561 19.76ZM73.6561 19.92L73.0661 20.7274L73.0733 20.7327L73.0806 20.7378L73.6561 19.92ZM73.8561 24.12L73.1834 23.3801L73.1748 23.3879L73.1664 23.3959L73.8561 24.12ZM71.0161 24.92H70.0161V25.92H71.0161V24.92ZM70.8161 23.12L71.7755 22.8378L70.8161 23.12ZM70.1361 22.12L69.5479 22.9287L69.5644 22.9407L69.5814 22.952L70.1361 22.12ZM67.0161 22.68L66.2593 22.0264V22.0264L67.0161 22.68ZM65.8161 24.92L64.8647 24.6122V24.6122L65.8161 24.92ZM65.1761 27.76L66.1666 27.8976L66.1671 27.8939L65.1761 27.76ZM65.4161 38.4L64.6097 38.9914L64.6321 39.022L64.6568 39.0508L65.4161 38.4ZM66.6161 39.16L66.3484 40.1235L66.379 40.132L66.4101 40.1385L66.6161 39.16ZM69.3761 39.32H70.3761V38.32H69.3761V39.32ZM69.3761 41V42H70.3761V41H69.3761ZM57.8161 41H58.8161V39.32H57.8161H56.8161V41H57.8161ZM57.8161 39.32V40.32H57.9361V39.32V38.32H57.8161V39.32ZM57.9361 39.32V40.32C58.6199 40.32 59.2592 40.2459 59.8437 40.0835L59.5761 39.12L59.3084 38.1565C58.933 38.2608 58.479 38.32 57.9361 38.32V39.32ZM59.5761 39.12L59.8306 40.0871C60.5454 39.899 61.1457 39.507 61.5825 38.9114L60.7761 38.32L59.9697 37.7286C59.8198 37.933 59.6201 38.0744 59.3216 38.1529L59.5761 39.12ZM60.7761 38.32L61.6001 38.8865C62.0579 38.2207 62.2161 37.3582 62.2161 36.44H61.2161H60.2161C60.2161 37.1752 60.0809 37.566 59.9521 37.7535L60.7761 38.32ZM61.2161 36.44H62.2161V23.96H61.2161H60.2161V36.44H61.2161ZM61.2161 23.96H62.2161C62.2161 23.0612 62.0424 22.1874 61.4953 21.5492L60.7361 22.2L59.9768 22.8508C60.0698 22.9593 60.2161 23.2588 60.2161 23.96H61.2161ZM60.7361 22.2L61.5425 21.6086C61.0967 21.0007 60.4782 20.6164 59.7421 20.4614L59.5361 21.44L59.3301 22.4185C59.6074 22.4769 59.7888 22.5993 59.9297 22.7914L60.7361 22.2ZM59.5361 21.44L59.8037 20.4765C59.2228 20.3151 58.5976 20.24 57.9361 20.24V21.24V22.24C58.4479 22.24 58.8894 22.2982 59.2685 22.4035L59.5361 21.44ZM57.9361 21.24V20.24H57.8161V21.24V22.24H57.9361V21.24ZM57.8161 21.24H58.8161V19.56H57.8161H56.8161V21.24H57.8161ZM57.8161 19.56V20.56H63.9761V19.56V18.56H57.8161V19.56ZM63.9761 19.56L62.994 19.7485L63.754 23.7085L64.7361 23.52L65.7182 23.3315L64.9582 19.3715L63.9761 19.56ZM64.7361 23.52V24.52H64.9361V23.52V22.52H64.7361V23.52ZM64.9361 23.52L65.8536 23.9176C66.1849 23.1531 66.5387 22.4594 66.9136 21.8345L66.0561 21.32L65.1986 20.8055C64.7735 21.514 64.3806 22.2869 64.0185 23.1224L64.9361 23.52ZM66.0561 21.32L66.9136 21.8345C67.2256 21.3145 67.6329 20.9191 68.1447 20.6325L67.6561 19.76L67.1675 18.8875C66.346 19.3475 65.6866 19.9921 65.1986 20.8055L66.0561 21.32ZM67.6561 19.76L68.1706 20.6175C68.622 20.3466 69.3385 20.16 70.4161 20.16V19.16V18.16C69.147 18.16 68.0235 18.3734 67.1416 18.9025L67.6561 19.76ZM70.4161 19.16V20.16C71.8055 20.16 72.6277 20.4071 73.0661 20.7274L73.6561 19.92L74.2461 19.1126C73.2978 18.4196 71.9601 18.16 70.4161 18.16V19.16ZM73.6561 19.92L73.0806 20.7378C73.5161 21.0443 73.7361 21.449 73.7361 22.08H74.7361H75.7361C75.7361 20.8443 75.2361 19.8091 74.2316 19.1022L73.6561 19.92ZM74.7361 22.08H73.7361C73.7361 22.6385 73.5518 23.0452 73.1834 23.3801L73.8561 24.12L74.5288 24.8599C75.3338 24.1281 75.7361 23.1748 75.7361 22.08H74.7361ZM73.8561 24.12L73.1664 23.3959C72.8878 23.6613 72.2646 23.92 71.0161 23.92V24.92V25.92C72.4342 25.92 73.7044 25.6454 74.5457 24.8441L73.8561 24.12ZM71.0161 24.92H72.0161C72.0161 24.1263 71.9467 23.4199 71.7755 22.8378L70.8161 23.12L69.8567 23.4022C69.9522 23.7267 70.0161 24.2204 70.0161 24.92H71.0161ZM70.8161 23.12L71.7755 22.8378C71.5916 22.2127 71.2477 21.6592 70.6908 21.2879L70.1361 22.12L69.5814 22.952C69.6645 23.0074 69.7739 23.1206 69.8567 23.4022L70.8161 23.12ZM70.1361 22.12L70.7243 21.3113C70.1966 20.9275 69.5459 20.8 68.8961 20.8V21.8V22.8C69.313 22.8 69.4889 22.8858 69.5479 22.9287L70.1361 22.12ZM68.8961 21.8V20.8C67.8464 20.8 66.9476 21.2294 66.2593 22.0264L67.0161 22.68L67.7729 23.3336C68.0979 22.9573 68.4525 22.8 68.8961 22.8V21.8ZM67.0161 22.68L66.2593 22.0264C65.6477 22.7345 65.1899 23.6067 64.8647 24.6122L65.8161 24.92L66.7675 25.2278C67.0289 24.4199 67.3711 23.7988 67.7729 23.3336L67.0161 22.68ZM65.8161 24.92L64.8647 24.6122C64.5522 25.578 64.3261 26.583 64.1851 27.6261L65.1761 27.76L66.1671 27.8939C66.2928 26.9636 66.4933 26.0753 66.7675 25.2278L65.8161 24.92ZM65.1761 27.76L64.1856 27.6224C64.0474 28.6172 63.9761 29.5308 63.9761 30.36H64.9761H65.9761C65.9761 29.6425 66.0381 28.8228 66.1666 27.8976L65.1761 27.76ZM64.9761 30.36H63.9761V36.64H64.9761H65.9761V30.36H64.9761ZM64.9761 36.64H63.9761C63.9761 37.515 64.1378 38.3479 64.6097 38.9914L65.4161 38.4L66.2225 37.8086C66.1077 37.6521 65.9761 37.3116 65.9761 36.64H64.9761ZM65.4161 38.4L64.6568 39.0508C65.1078 39.577 65.6799 39.9378 66.3484 40.1235L66.6161 39.16L66.8837 38.1965C66.5923 38.1155 66.3644 37.9697 66.1754 37.7492L65.4161 38.4ZM66.6161 39.16L66.4101 40.1385C66.9927 40.2612 67.6092 40.32 68.2561 40.32V39.32V38.32C67.7297 38.32 67.2528 38.2721 66.8221 38.1814L66.6161 39.16ZM68.2561 39.32V40.32H69.3761V39.32V38.32H68.2561V39.32ZM69.3761 39.32H68.3761V41H69.3761H70.3761V39.32H69.3761ZM69.3761 41V40H57.8161V41V42H69.3761V41ZM76.2442 41H75.2442V42H76.2442V41ZM76.2442 39.32V38.32H75.2442V39.32H76.2442ZM78.3642 39.16L78.5812 40.1362L78.6 40.132L78.6187 40.1271L78.3642 39.16ZM79.5642 38.4L78.7833 37.7753L78.7779 37.7822L79.5642 38.4ZM79.5642 22.2L78.7578 22.7914L78.7803 22.822L78.805 22.8508L79.5642 22.2ZM78.3642 21.44L78.0966 22.4035L78.1272 22.412L78.1582 22.4185L78.3642 21.44ZM76.6442 21.24H75.6442V22.24H76.6442V21.24ZM76.6442 19.56V18.56H75.6442V19.56H76.6442ZM83.8042 19.56H84.8042V18.56H83.8042V19.56ZM84.2442 38.32L83.4202 38.8865L83.4288 38.8991L83.4378 38.9114L84.2442 38.32ZM85.4442 39.12L85.6987 38.1529L85.4442 39.12ZM87.6042 39.32H88.6042V38.32H87.6042V39.32ZM87.6042 41V42H88.6042V41H87.6042ZM80.1242 15L79.4657 15.7526L79.477 15.7624L79.4885 15.7719L80.1242 15ZM80.1242 11.16L80.7548 11.9361L80.7599 11.9319L80.1242 11.16ZM83.3642 11.16L82.7285 11.9319L82.7424 11.9434L82.7568 11.9544L83.3642 11.16ZM83.3642 15L82.7285 14.2281V14.2281L83.3642 15ZM76.2442 41H77.2442V39.32H76.2442H75.2442V41H76.2442ZM76.2442 39.32V40.32H76.7642V39.32V38.32H76.2442V39.32ZM76.7642 39.32V40.32C77.4103 40.32 78.0178 40.2614 78.5812 40.1362L78.3642 39.16L78.1473 38.1838C77.7506 38.272 77.2915 38.32 76.7642 38.32V39.32ZM78.3642 39.16L78.6187 40.1271C79.313 39.9444 79.9087 39.5802 80.3505 39.0178L79.5642 38.4L78.7779 37.7822C78.6331 37.9665 78.4288 38.109 78.1097 38.1929L78.3642 39.16ZM79.5642 38.4L80.3451 39.0247C80.8633 38.3769 81.0442 37.5298 81.0442 36.64H80.0442H79.0442C79.0442 37.2968 78.9051 37.6231 78.7834 37.7753L79.5642 38.4ZM80.0442 36.64H81.0442V23.96H80.0442H79.0442V36.64H80.0442ZM80.0442 23.96H81.0442C81.0442 23.0612 80.8705 22.1874 80.3235 21.5492L79.5642 22.2L78.805 22.8508C78.8979 22.9593 79.0442 23.2588 79.0442 23.96H80.0442ZM79.5642 22.2L80.3706 21.6086C79.9248 21.0007 79.3063 20.6164 78.5702 20.4614L78.3642 21.44L78.1582 22.4185C78.4355 22.4769 78.617 22.5993 78.7578 22.7914L79.5642 22.2ZM78.3642 21.44L78.6319 20.4765C78.0509 20.3151 77.4258 20.24 76.7642 20.24V21.24V22.24C77.276 22.24 77.7176 22.2982 78.0966 22.4035L78.3642 21.44ZM76.7642 21.24V20.24H76.6442V21.24V22.24H76.7642V21.24ZM76.6442 21.24H77.6442V19.56H76.6442H75.6442V21.24H76.6442ZM76.6442 19.56V20.56H83.8042V19.56V18.56H76.6442V19.56ZM83.8042 19.56H82.8042V36.44H83.8042H84.8042V19.56H83.8042ZM83.8042 36.44H82.8042C82.8042 37.3582 82.9624 38.2207 83.4202 38.8865L84.2442 38.32L85.0683 37.7535C84.9394 37.566 84.8042 37.1752 84.8042 36.44H83.8042ZM84.2442 38.32L83.4378 38.9114C83.8746 39.507 84.4749 39.899 85.1897 40.0871L85.4442 39.12L85.6987 38.1529C85.4002 38.0744 85.2005 37.933 85.0506 37.7286L84.2442 38.32ZM85.4442 39.12L85.1897 40.0871C85.7887 40.2447 86.4218 40.32 87.0842 40.32V39.32V38.32C86.5733 38.32 86.1131 38.262 85.6987 38.1529L85.4442 39.12ZM87.0842 39.32V40.32H87.6042V39.32V38.32H87.0842V39.32ZM87.6042 39.32H86.6042V41H87.6042H88.6042V39.32H87.6042ZM87.6042 41V40H76.2442V41V42H87.6042V41ZM81.7642 15.56V14.56C81.3339 14.56 81.0177 14.4404 80.7599 14.2281L80.1242 15L79.4885 15.7719C80.1374 16.3063 80.9146 16.56 81.7642 16.56V15.56ZM80.1242 15L80.7827 14.2474C80.6745 14.1528 80.4842 13.8682 80.4842 13.08H79.4842H78.4842C78.4842 14.1052 78.7206 15.1006 79.4657 15.7526L80.1242 15ZM79.4842 13.08H80.4842C80.4842 12.2441 80.6838 11.9938 80.7548 11.9361L80.1242 11.16L79.4936 10.3839C78.7113 11.0196 78.4842 12.0492 78.4842 13.08H79.4842ZM80.1242 11.16L80.7599 11.9319C81.0177 11.7196 81.3339 11.6 81.7642 11.6V10.6V9.6C80.9146 9.6 80.1374 9.85371 79.4885 10.3881L80.1242 11.16ZM81.7642 10.6V11.6C82.1568 11.6 82.4626 11.713 82.7285 11.9319L83.3642 11.16L83.9999 10.3881C83.3591 9.86035 82.5983 9.6 81.7642 9.6V10.6ZM83.3642 11.16L82.7568 11.9544C82.8397 12.0178 83.0442 12.261 83.0442 13.08H84.0442H85.0442C85.0442 12.0323 84.7954 10.9956 83.9717 10.3656L83.3642 11.16ZM84.0442 13.08H83.0442C83.0442 13.8516 82.8491 14.1287 82.7285 14.2281L83.3642 15L83.9999 15.7719C84.786 15.1246 85.0442 14.1217 85.0442 13.08H84.0442ZM83.3642 15L82.7285 14.2281C82.4626 14.447 82.1568 14.56 81.7642 14.56V15.56V16.56C82.5983 16.56 83.3591 16.2996 83.9999 15.7719L83.3642 15ZM88.8567 50.6H87.8567V51.6H88.8567V50.6ZM88.8567 48.92V47.92H87.8567V48.92H88.8567ZM90.8167 48.72L90.5622 47.7528L90.5491 47.7565L90.8167 48.72ZM92.0167 47.88L91.2103 47.2886L91.2013 47.3009L91.1927 47.3135L92.0167 47.88ZM91.9767 22.2L91.1703 22.7914L91.1928 22.822L91.2175 22.8508L91.9767 22.2ZM90.7767 21.44L90.5091 22.4035L90.5397 22.412L90.5707 22.4185L90.7767 21.44ZM88.6567 21.24H87.6567V22.24H88.6567V21.24ZM88.6567 19.56V18.56H87.6567V19.56H88.6567ZM95.6567 19.56L96.6506 19.4496L96.5518 18.56H95.6567V19.56ZM96.0567 23.16L95.0628 23.2704L95.1617 24.16H96.0567V23.16ZM96.2167 23.16V24.16H96.8348L97.1111 23.6072L96.2167 23.16ZM98.5767 20.24L97.9767 19.44L97.9767 19.44L98.5767 20.24ZM108.377 21.84L107.587 22.4531L107.592 22.4597L107.597 22.4661L108.377 21.84ZM108.377 38.72L107.592 38.0996L107.587 38.1069L108.377 38.72ZM98.5367 40.44L97.9663 41.2614L97.9793 41.2704L97.9925 41.279L98.5367 40.44ZM96.2167 37.88L97.0877 37.3887L96.8008 36.88H96.2167V37.88ZM96.0567 37.88V36.88H94.9459L95.0622 37.9847L96.0567 37.88ZM96.1367 39.52H95.1367V39.5438L95.1378 39.5676L96.1367 39.52ZM96.1767 41.12H95.1767V41.1463L95.1781 41.1726L96.1767 41.12ZM96.6567 47.96L95.8704 48.5778L95.8758 48.5847L96.6567 47.96ZM97.8567 48.72L98.1112 47.7529L98.0925 47.748L98.0736 47.7438L97.8567 48.72ZM99.6167 48.92H100.617V47.92H99.6167V48.92ZM99.6167 50.6V51.6H100.617V50.6H99.6167ZM104.537 37.84L105.216 38.5738L104.537 37.84ZM106.097 34.92L105.131 34.6586L105.129 34.668L105.127 34.6775L106.097 34.92ZM106.097 25.48L105.128 25.7274L105.13 25.737L105.133 25.7466L106.097 25.48ZM104.537 22.68L103.872 23.4274L103.88 23.4344L103.888 23.4412L104.537 22.68ZM98.3767 22.64L97.7683 21.8464L97.7618 21.8514L97.7553 21.8565L98.3767 22.64ZM96.6967 25.48L95.7315 25.2186L95.7296 25.2256L95.7278 25.2326L96.6967 25.48ZM96.6967 34.92L95.7266 35.1625L95.7289 35.172L95.7315 35.1814L96.6967 34.92ZM98.4167 37.84L97.7765 38.6082L98.4167 37.84ZM88.8567 50.6H89.8567V48.92H88.8567H87.8567V50.6H88.8567ZM88.8567 48.92V49.92H89.1767V48.92V47.92H88.8567V48.92ZM89.1767 48.92V49.92C89.8605 49.92 90.4998 49.8459 91.0844 49.6835L90.8167 48.72L90.5491 47.7565C90.1736 47.8608 89.7196 47.92 89.1767 47.92V48.92ZM90.8167 48.72L91.0712 49.6871C91.8066 49.4936 92.4099 49.0732 92.8408 48.4465L92.0167 47.88L91.1927 47.3135C91.0368 47.5401 90.8402 47.6798 90.5622 47.7529L90.8167 48.72ZM92.0167 47.88L92.8231 48.4714C93.3015 47.8191 93.4567 46.9507 93.4567 46.04H92.4567H91.4567C91.4567 46.7827 91.3186 47.1409 91.2103 47.2886L92.0167 47.88ZM92.4567 46.04H93.4567V23.96H92.4567H91.4567V46.04H92.4567ZM92.4567 23.96H93.4567C93.4567 23.0612 93.283 22.1874 92.736 21.5492L91.9767 22.2L91.2175 22.8508C91.3104 22.9593 91.4567 23.2588 91.4567 23.96H92.4567ZM91.9767 22.2L92.7831 21.6086C92.3373 21.0007 91.7188 20.6164 90.9827 20.4614L90.7767 21.44L90.5707 22.4185C90.848 22.4769 91.0295 22.5993 91.1703 22.7914L91.9767 22.2ZM90.7767 21.44L91.0444 20.4765C90.4634 20.3151 89.8383 20.24 89.1767 20.24V21.24V22.24C89.6885 22.24 90.1301 22.2982 90.5091 22.4035L90.7767 21.44ZM89.1767 21.24V20.24H88.6567V21.24V22.24H89.1767V21.24ZM88.6567 21.24H89.6567V19.56H88.6567H87.6567V21.24H88.6567ZM88.6567 19.56V20.56H95.6567V19.56V18.56H88.6567V19.56ZM95.6567 19.56L94.6628 19.6704L95.0628 23.2704L96.0567 23.16L97.0506 23.0496L96.6506 19.4496L95.6567 19.56ZM96.0567 23.16V24.16H96.2167V23.16V22.16H96.0567V23.16ZM96.2167 23.16L97.1111 23.6072C97.665 22.4995 98.3576 21.6543 99.1767 21.04L98.5767 20.24L97.9767 19.44C96.8758 20.2657 95.9951 21.3672 95.3223 22.7128L96.2167 23.16ZM98.5767 20.24L99.1767 21.04C99.9193 20.483 100.944 20.16 102.337 20.16V19.16V18.16C100.636 18.16 99.1541 18.557 97.9767 19.44L98.5767 20.24ZM102.337 19.16V20.16C104.726 20.16 106.423 20.9531 107.587 22.4531L108.377 21.84L109.167 21.2269C107.558 19.1535 105.227 18.16 102.337 18.16V19.16ZM108.377 21.84L107.597 22.4661C108.798 23.9613 109.497 26.4825 109.497 30.24H110.497H111.497C111.497 26.3175 110.782 23.2387 109.156 21.2139L108.377 21.84ZM110.497 30.24H109.497C109.497 34.0242 108.798 36.5759 107.592 38.0996L108.377 38.72L109.161 39.3404C110.782 37.2908 111.497 34.1892 111.497 30.24H110.497ZM108.377 38.72L107.587 38.1069C106.423 39.6069 104.726 40.4 102.337 40.4V41.4V42.4C105.227 42.4 107.558 41.4065 109.167 39.3331L108.377 38.72ZM102.337 41.4V40.4C100.923 40.4 99.8618 40.1075 99.0809 39.601L98.5367 40.44L97.9925 41.279C99.185 42.0525 100.657 42.4 102.337 42.4V41.4ZM98.5367 40.44L99.1071 39.6186C98.2736 39.0398 97.602 38.3004 97.0877 37.3887L96.2167 37.88L95.3457 38.3713C96.0048 39.5396 96.8798 40.5068 97.9663 41.2614L98.5367 40.44ZM96.2167 37.88V36.88H96.0567V37.88V38.88H96.2167V37.88ZM96.0567 37.88L95.0622 37.9847C95.1114 38.4518 95.1367 38.9632 95.1367 39.52H96.1367H97.1367C97.1367 38.9035 97.1087 38.3215 97.0512 37.7753L96.0567 37.88ZM96.1367 39.52L95.1378 39.5676C95.1638 40.1134 95.1767 40.6308 95.1767 41.12H96.1767H97.1767C97.1767 40.5959 97.1629 40.0466 97.1356 39.4724L96.1367 39.52ZM96.1767 41.12L95.1781 41.1726C95.2042 41.6689 95.2167 42.0768 95.2167 42.4H96.2167H97.2167C97.2167 42.0298 97.2025 41.5844 97.1753 41.0674L96.1767 41.12ZM96.2167 42.4H95.2167V46.24H96.2167H97.2167V42.4H96.2167ZM96.2167 46.24H95.2167C95.2167 47.1072 95.3754 47.9478 95.8704 48.5778L96.6567 47.96L97.443 47.3422C97.3514 47.2256 97.2167 46.9195 97.2167 46.24H96.2167ZM96.6567 47.96L95.8758 48.5847C96.3318 49.1547 96.9274 49.5379 97.6398 49.6962L97.8567 48.72L98.0736 47.7438C97.826 47.6888 97.6216 47.5653 97.4376 47.3353L96.6567 47.96ZM97.8567 48.72L97.6022 49.6871C98.2012 49.8447 98.8343 49.92 99.4967 49.92V48.92V47.92C98.9858 47.92 98.5256 47.862 98.1112 47.7529L97.8567 48.72ZM99.4967 48.92V49.92H99.6167V48.92V47.92H99.4967V48.92ZM99.6167 48.92H98.6167V50.6H99.6167H100.617V48.92H99.6167ZM99.6167 50.6V49.6H88.8567V50.6V51.6H99.6167V50.6ZM101.697 38.84V39.84C103.07 39.84 104.276 39.444 105.216 38.5738L104.537 37.84L103.857 37.1062C103.357 37.5693 102.67 37.84 101.697 37.84V38.84ZM104.537 37.84L105.216 38.5738C106.12 37.7368 106.716 36.5677 107.067 35.1625L106.097 34.92L105.127 34.6775C104.838 35.8323 104.393 36.6099 103.857 37.1062L104.537 37.84ZM106.097 34.92L107.062 35.1814C107.439 33.7894 107.617 32.1221 107.617 30.2H106.617H105.617C105.617 32.0112 105.448 33.4906 105.131 34.6586L106.097 34.92ZM106.617 30.2H107.617C107.617 28.2536 107.439 26.5832 107.061 25.2134L106.097 25.48L105.133 25.7466C105.447 26.8835 105.617 28.3597 105.617 30.2H106.617ZM106.097 25.48L107.066 25.2326C106.713 23.851 106.111 22.7074 105.185 21.9188L104.537 22.68L103.888 23.4412C104.402 23.8793 104.841 24.6024 105.128 25.7274L106.097 25.48ZM104.537 22.68L105.201 21.9326C104.256 21.0926 103.039 20.72 101.657 20.72V21.72V22.72C102.674 22.72 103.377 22.9874 103.872 23.4274L104.537 22.68ZM101.657 21.72V20.72C100.131 20.72 98.798 21.057 97.7683 21.8464L98.3767 22.64L98.9852 23.4336C99.5555 22.9964 100.409 22.72 101.657 22.72V21.72ZM98.3767 22.64L97.7553 21.8565C96.7654 22.6416 96.1151 23.8023 95.7315 25.2186L96.6967 25.48L97.6619 25.7414C97.9717 24.5977 98.4413 23.8651 98.9981 23.4235L98.3767 22.64ZM96.6967 25.48L95.7278 25.2326C95.3798 26.5956 95.2167 28.2727 95.2167 30.24H96.2167H97.2167C97.2167 28.3673 97.3736 26.8711 97.6656 25.7274L96.6967 25.48ZM96.2167 30.24H95.2167C95.2167 32.1323 95.3807 33.779 95.7266 35.1625L96.6967 34.92L97.6669 34.6775C97.3728 33.501 97.2167 32.0277 97.2167 30.24H96.2167ZM96.6967 34.92L95.7315 35.1814C96.1172 36.6054 96.7804 37.7781 97.7765 38.6082L98.4167 37.84L99.0569 37.0718C98.453 36.5686 97.9696 35.7946 97.6619 34.6586L96.6967 34.92ZM98.4167 37.84L97.7765 38.6082C98.8083 39.468 100.154 39.84 101.697 39.84V38.84V37.84C100.466 37.84 99.6252 37.5453 99.0569 37.0718L98.4167 37.84ZM114.227 41H113.227V42H114.227V41ZM114.227 39.32V38.32H113.227V39.32H114.227ZM116.387 39.12L116.133 38.1528L116.119 38.1565L116.387 39.12ZM117.587 38.32L118.393 38.9114L118.402 38.8991L118.411 38.8865L117.587 38.32ZM117.587 15.12L116.781 15.7114V15.7114L117.587 15.12ZM116.387 14.32L116.119 15.2836L116.133 15.2871L116.387 14.32ZM114.227 14.12H113.227V15.12H114.227V14.12ZM114.227 12.44V11.44H113.227V12.44H114.227ZM125.867 12.44H126.867V11.44H125.867V12.44ZM125.867 14.12V15.12H126.867V14.12H125.867ZM123.707 14.32L123.924 15.2962L123.943 15.292L123.962 15.2871L123.707 14.32ZM122.507 15.08L121.726 14.4553L121.721 14.4622L122.507 15.08ZM122.067 39H121.067V40H122.067V39ZM131.867 38.48L132.453 39.2907L132.46 39.2851L131.867 38.48ZM133.467 35.4L134.457 35.5414L134.458 35.5322L133.467 35.4ZM133.867 32.4V31.4H132.992L132.876 32.2678L133.867 32.4ZM135.947 32.4L136.947 32.4325L136.98 31.4H135.947V32.4ZM135.667 41V42H136.635L136.667 41.0325L135.667 41ZM114.227 41H115.227V39.32H114.227H113.227V41H114.227ZM114.227 39.32V40.32H114.747V39.32V38.32H114.227V39.32ZM114.747 39.32V40.32C115.431 40.32 116.07 40.2459 116.655 40.0835L116.387 39.12L116.119 38.1565C115.744 38.2608 115.29 38.32 114.747 38.32V39.32ZM116.387 39.12L116.642 40.0871C117.356 39.899 117.957 39.507 118.393 38.9114L117.587 38.32L116.781 37.7286C116.631 37.933 116.431 38.0744 116.133 38.1529L116.387 39.12ZM117.587 38.32L118.411 38.8865C118.869 38.2207 119.027 37.3582 119.027 36.44H118.027H117.027C117.027 37.1752 116.892 37.566 116.763 37.7535L117.587 38.32ZM118.027 36.44H119.027V17H118.027H117.027V36.44H118.027ZM118.027 17H119.027C119.027 16.0711 118.875 15.1849 118.393 14.5286L117.587 15.12L116.781 15.7114C116.886 15.8551 117.027 16.2222 117.027 17H118.027ZM117.587 15.12L118.393 14.5286C117.957 13.933 117.356 13.541 116.642 13.3529L116.387 14.32L116.133 15.2871C116.431 15.3656 116.631 15.507 116.781 15.7114L117.587 15.12ZM116.387 14.32L116.655 13.3565C116.07 13.1941 115.431 13.12 114.747 13.12V14.12V15.12C115.29 15.12 115.744 15.1792 116.119 15.2835L116.387 14.32ZM114.747 14.12V13.12H114.227V14.12V15.12H114.747V14.12ZM114.227 14.12H115.227V12.44H114.227H113.227V14.12H114.227ZM114.227 12.44V13.44H125.867V12.44V11.44H114.227V12.44ZM125.867 12.44H124.867V14.12H125.867H126.867V12.44H125.867ZM125.867 14.12V13.12H125.347V14.12V15.12H125.867V14.12ZM125.347 14.12V13.12C124.685 13.12 124.052 13.1953 123.453 13.3529L123.707 14.32L123.962 15.2871C124.376 15.178 124.836 15.12 125.347 15.12V14.12ZM123.707 14.32L123.49 13.3438C122.778 13.5021 122.182 13.8853 121.726 14.4553L122.507 15.08L123.288 15.7047C123.472 15.4747 123.676 15.3512 123.924 15.2962L123.707 14.32ZM122.507 15.08L121.721 14.4622C121.222 15.0968 121.067 15.9557 121.067 16.84H122.067H123.067C123.067 16.1243 123.205 15.8099 123.293 15.6978L122.507 15.08ZM122.067 16.84H121.067V39H122.067H123.067V16.84H122.067ZM122.067 39V40H129.947V39V38H122.067V39ZM129.947 39V40C130.885 40 131.751 39.797 132.453 39.2907L131.867 38.48L131.282 37.6693C131.023 37.8563 130.609 38 129.947 38V39ZM131.867 38.48L132.46 39.2851C133.105 38.8098 133.594 38.2031 133.906 37.4739L132.987 37.08L132.068 36.6861C131.9 37.0769 131.642 37.4036 131.274 37.6749L131.867 38.48ZM132.987 37.08L133.906 37.4739C134.178 36.8394 134.364 36.1947 134.457 35.5414L133.467 35.4L132.477 35.2586C132.41 35.7253 132.276 36.2006 132.068 36.6861L132.987 37.08ZM133.467 35.4L134.458 35.5322L134.858 32.5322L133.867 32.4L132.876 32.2678L132.476 35.2678L133.467 35.4ZM133.867 32.4V33.4H135.947V32.4V31.4H133.867V32.4ZM135.947 32.4L134.948 32.3675L134.668 40.9675L135.667 41L136.667 41.0325L136.947 32.4325L135.947 32.4ZM135.667 41V40H114.227V41V42H135.667V41ZM138.549 41H137.549V42H138.549V41ZM138.549 39.32V38.32H137.549V39.32H138.549ZM140.669 39.16L140.886 40.1362L140.905 40.132L140.923 40.1271L140.669 39.16ZM141.869 38.4L141.088 37.7753L141.083 37.7822L141.869 38.4ZM141.869 22.2L141.062 22.7914L141.085 22.822L141.11 22.8508L141.869 22.2ZM140.669 21.44L140.401 22.4035L140.432 22.412L140.463 22.4185L140.669 21.44ZM138.949 21.24H137.949V22.24H138.949V21.24ZM138.949 19.56V18.56H137.949V19.56H138.949ZM146.109 19.56H147.109V18.56H146.109V19.56ZM146.549 38.32L145.725 38.8865L145.733 38.8991L145.743 38.9114L146.549 38.32ZM147.749 39.12L148.003 38.1529L147.749 39.12ZM149.909 39.32H150.909V38.32H149.909V39.32ZM149.909 41V42H150.909V41H149.909ZM142.429 15L141.77 15.7526L141.782 15.7624L141.793 15.7719L142.429 15ZM142.429 11.16L143.06 11.9361L143.065 11.9319L142.429 11.16ZM145.669 11.16L145.033 11.9319L145.047 11.9434L145.061 11.9544L145.669 11.16ZM145.669 15L145.033 14.2281L145.033 14.2281L145.669 15ZM138.549 41H139.549V39.32H138.549H137.549V41H138.549ZM138.549 39.32V40.32H139.069V39.32V38.32H138.549V39.32ZM139.069 39.32V40.32C139.715 40.32 140.323 40.2614 140.886 40.1362L140.669 39.16L140.452 38.1838C140.055 38.272 139.596 38.32 139.069 38.32V39.32ZM140.669 39.16L140.923 40.1271C141.618 39.9444 142.213 39.5802 142.655 39.0178L141.869 38.4L141.083 37.7822C140.938 37.9665 140.734 38.109 140.414 38.1929L140.669 39.16ZM141.869 38.4L142.65 39.0247C143.168 38.3769 143.349 37.5298 143.349 36.64H142.349H141.349C141.349 37.2968 141.21 37.6231 141.088 37.7753L141.869 38.4ZM142.349 36.64H143.349V23.96H142.349H141.349V36.64H142.349ZM142.349 23.96H143.349C143.349 23.0612 143.175 22.1874 142.628 21.5492L141.869 22.2L141.11 22.8508C141.203 22.9593 141.349 23.2588 141.349 23.96H142.349ZM141.869 22.2L142.675 21.6086C142.229 21.0007 141.611 20.6164 140.875 20.4614L140.669 21.44L140.463 22.4185C140.74 22.4769 140.922 22.5993 141.062 22.7914L141.869 22.2ZM140.669 21.44L140.937 20.4765C140.356 20.3151 139.73 20.24 139.069 20.24V21.24V22.24C139.581 22.24 140.022 22.2982 140.401 22.4035L140.669 21.44ZM139.069 21.24V20.24H138.949V21.24V22.24H139.069V21.24ZM138.949 21.24H139.949V19.56H138.949H137.949V21.24H138.949ZM138.949 19.56V20.56H146.109V19.56V18.56H138.949V19.56ZM146.109 19.56H145.109V36.44H146.109H147.109V19.56H146.109ZM146.109 36.44H145.109C145.109 37.3582 145.267 38.2207 145.725 38.8865L146.549 38.32L147.373 37.7535C147.244 37.566 147.109 37.1752 147.109 36.44H146.109ZM146.549 38.32L145.743 38.9114C146.179 39.507 146.78 39.899 147.494 40.0871L147.749 39.12L148.003 38.1529C147.705 38.0744 147.505 37.933 147.355 37.7286L146.549 38.32ZM147.749 39.12L147.494 40.0871C148.093 40.2447 148.726 40.32 149.389 40.32V39.32V38.32C148.878 38.32 148.418 38.262 148.003 38.1529L147.749 39.12ZM149.389 39.32V40.32H149.909V39.32V38.32H149.389V39.32ZM149.909 39.32H148.909V41H149.909H150.909V39.32H149.909ZM149.909 41V40H138.549V41V42H149.909V41ZM144.069 15.56V14.56C143.639 14.56 143.322 14.4404 143.065 14.2281L142.429 15L141.793 15.7719C142.442 16.3063 143.219 16.56 144.069 16.56V15.56ZM142.429 15L143.087 14.2474C142.979 14.1528 142.789 13.8682 142.789 13.08H141.789H140.789C140.789 14.1052 141.025 15.1006 141.77 15.7526L142.429 15ZM141.789 13.08H142.789C142.789 12.2441 142.989 11.9938 143.06 11.9361L142.429 11.16L141.798 10.3839C141.016 11.0196 140.789 12.0492 140.789 13.08H141.789ZM142.429 11.16L143.065 11.9319C143.322 11.7196 143.639 11.6 144.069 11.6V10.6V9.6C143.219 9.6 142.442 9.85371 141.793 10.3881L142.429 11.16ZM144.069 10.6V11.6C144.461 11.6 144.767 11.713 145.033 11.9319L145.669 11.16L146.305 10.3881C145.664 9.86035 144.903 9.6 144.069 9.6V10.6ZM145.669 11.16L145.061 11.9544C145.144 12.0178 145.349 12.261 145.349 13.08H146.349H147.349C147.349 12.0323 147.1 10.9956 146.276 10.3656L145.669 11.16ZM146.349 13.08H145.349C145.349 13.8516 145.154 14.1287 145.033 14.2281L145.669 15L146.305 15.7719C147.091 15.1246 147.349 14.1217 147.349 13.08H146.349ZM145.669 15L145.033 14.2281C144.767 14.447 144.461 14.56 144.069 14.56V15.56V16.56C144.903 16.56 145.664 16.2996 146.305 15.7719L145.669 15ZM150.641 41H149.641V42H150.641V41ZM150.641 39.32V38.32H149.641V39.32H150.641ZM152.641 39.12L152.924 40.0794L152.949 40.0719L152.974 40.063L152.641 39.12ZM153.961 38.32L154.62 39.0726L153.961 38.32ZM155.361 36.76L154.57 36.1484L154.565 36.1549L155.361 36.76ZM160.401 30.24L161.193 30.8516L161.653 30.2562L161.208 29.649L160.401 30.24ZM155.361 23.36L156.168 22.769L156.151 22.7462L156.133 22.7243L155.361 23.36ZM154.201 22.2L153.551 22.9593L153.563 22.9703L153.577 22.9809L154.201 22.2ZM153.081 21.48L153.475 20.5609V20.5609L153.081 21.48ZM151.401 21.24H150.401V22.24H151.401V21.24ZM151.401 19.56V18.56H150.401V19.56H151.401ZM161.561 19.56H162.561V18.56H161.561V19.56ZM161.561 21.24V22.24H162.561V21.24H161.561ZM159.601 21.6L160.19 22.4087L160.196 22.4044L160.201 22.4L159.601 21.6ZM160.081 24.24L159.257 24.8065L159.266 24.8191L159.275 24.8314L160.081 24.24ZM162.721 27.84L161.915 28.4314L162.744 29.5621L163.543 28.4098L162.721 27.84ZM164.801 24.84L165.623 25.4098L165.632 25.3967L165.641 25.3832L164.801 24.84ZM165.521 23.56L166.428 23.9829L166.433 23.9719L166.438 23.9608L165.521 23.56ZM165.161 21.48L164.79 22.4085L164.826 22.4229L164.863 22.4345L165.161 21.48ZM163.521 21.24H162.521V22.24H163.521V21.24ZM163.521 19.56V18.56H162.521V19.56H163.521ZM172.281 19.56H173.281V18.56H172.281V19.56ZM172.281 21.24V22.24H173.281V21.24H172.281ZM170.521 21.44L170.779 22.4062L170.799 22.4008L170.82 22.3945L170.521 21.44ZM169.281 22.16L168.623 21.4074L168.611 21.418L168.599 21.4289L169.281 22.16ZM167.881 23.8L168.681 24.4009L168.685 24.3952L167.881 23.8ZM163.761 29.28L162.962 28.6791L162.513 29.2762L162.958 29.8761L163.761 29.28ZM169.641 37.2L168.839 37.7961L168.847 37.808L168.857 37.8196L169.641 37.2ZM170.761 38.44L170.083 39.1748L170.097 39.1873L170.111 39.1993L170.761 38.44ZM173.361 39.32H174.361V38.32H173.361V39.32ZM173.361 41V42H174.361V41H173.361ZM163.041 41H162.041V42H163.041V41ZM163.041 39.32V38.32H162.041V39.32H163.041ZM165.041 39L165.512 39.8824L165.534 39.8705L165.556 39.8575L165.041 39ZM165.321 37.04L164.427 37.4872L164.447 37.5266L164.47 37.5641L165.321 37.04ZM164.121 35.24L164.924 34.6442L164.924 34.6429L164.121 35.24ZM161.441 31.64L162.244 31.0429L161.425 29.9429L160.628 31.0588L161.441 31.64ZM158.641 35.56L159.441 36.16L159.448 36.1507L159.455 36.1412L158.641 35.56ZM157.921 36.76L158.805 37.2279L158.811 37.2176L158.816 37.2072L157.921 36.76ZM158.121 39.04L157.625 39.9082L157.661 39.9287L157.699 39.9462L158.121 39.04ZM160.161 39.32H161.161V38.32H160.161V39.32ZM160.161 41V42H161.161V41H160.161ZM150.641 41H151.641V39.32H150.641H149.641V41H150.641ZM150.641 39.32V40.32H151.001V39.32V38.32H150.641V39.32ZM151.001 39.32V40.32C151.706 40.32 152.353 40.2473 152.924 40.0794L152.641 39.12L152.359 38.1606C152.023 38.2594 151.577 38.32 151.001 38.32V39.32ZM152.641 39.12L152.974 40.063C153.567 39.8539 154.115 39.5148 154.62 39.0726L153.961 38.32L153.303 37.5674C152.955 37.8719 152.623 38.0661 152.309 38.177L152.641 39.12ZM153.961 38.32L154.62 39.0726C155.115 38.6393 155.627 38.0626 156.158 37.3651L155.361 36.76L154.565 36.1549C154.082 36.7907 153.661 37.2541 153.303 37.5674L153.961 38.32ZM155.361 36.76L156.153 37.3716L161.193 30.8516L160.401 30.24L159.61 29.6284L154.57 36.1484L155.361 36.76ZM160.401 30.24L161.208 29.649L156.168 22.769L155.361 23.36L154.555 23.951L159.595 30.831L160.401 30.24ZM155.361 23.36L156.133 22.7243C155.722 22.2252 155.287 21.788 154.826 21.4191L154.201 22.2L153.577 22.9809C153.916 23.252 154.254 23.5881 154.589 23.9957L155.361 23.36ZM154.201 22.2L154.852 21.4407C154.417 21.0681 153.959 20.7682 153.475 20.5609L153.081 21.48L152.687 22.3991C152.95 22.5118 153.239 22.6919 153.551 22.9593L154.201 22.2ZM153.081 21.48L153.475 20.5609C152.979 20.3484 152.459 20.24 151.921 20.24V21.24V22.24C152.184 22.24 152.437 22.2916 152.687 22.3991L153.081 21.48ZM151.921 21.24V20.24H151.401V21.24V22.24H151.921V21.24ZM151.401 21.24H152.401V19.56H151.401H150.401V21.24H151.401ZM151.401 19.56V20.56H161.561V19.56V18.56H151.401V19.56ZM161.561 19.56H160.561V21.24H161.561H162.561V19.56H161.561ZM161.561 21.24V20.24H161.441V21.24V22.24H161.561V21.24ZM161.441 21.24V20.24C160.95 20.24 160.501 20.2721 160.109 20.3486C159.73 20.4229 159.331 20.5529 159.001 20.8L159.601 21.6L160.201 22.4C160.192 22.4071 160.26 22.3571 160.493 22.3114C160.716 22.2679 161.026 22.24 161.441 22.24V21.24ZM159.601 21.6L159.013 20.7913C158.501 21.1639 158.161 21.7139 158.161 22.4H159.161H160.161C160.161 22.397 160.162 22.4021 160.159 22.4125C160.156 22.4233 160.152 22.4337 160.148 22.4419C160.143 22.4499 160.141 22.451 160.146 22.4457C160.151 22.4401 160.164 22.4272 160.19 22.4087L159.601 21.6ZM159.161 22.4H158.161C158.161 22.8762 158.306 23.3186 158.544 23.7145L159.401 23.2L160.259 22.6855C160.176 22.5481 160.161 22.4572 160.161 22.4H159.161ZM159.401 23.2L158.544 23.7145C158.719 24.0066 158.959 24.3724 159.257 24.8065L160.081 24.24L160.905 23.6735C160.617 23.2543 160.404 22.9268 160.259 22.6855L159.401 23.2ZM160.081 24.24L159.275 24.8314L161.915 28.4314L162.721 27.84L163.528 27.2486L160.888 23.6486L160.081 24.24ZM162.721 27.84L163.543 28.4098L165.623 25.4098L164.801 24.84L163.98 24.2702L161.9 27.2702L162.721 27.84ZM164.801 24.84L165.641 25.3832C165.954 24.8995 166.218 24.4325 166.428 23.9829L165.521 23.56L164.615 23.1371C164.452 23.4875 164.236 23.8738 163.962 24.2967L164.801 24.84ZM165.521 23.56L166.438 23.9608C166.662 23.4488 166.801 22.9233 166.801 22.4H165.801H164.801C164.801 22.57 164.755 22.8179 164.605 23.1592L165.521 23.56ZM165.801 22.4H166.801C166.801 22.0138 166.715 21.6019 166.462 21.2389C166.205 20.8694 165.842 20.645 165.46 20.5255L165.161 21.48L164.863 22.4345C164.888 22.4424 164.889 22.446 164.875 22.4365C164.868 22.4318 164.859 22.4247 164.849 22.4147C164.839 22.4046 164.829 22.3932 164.82 22.3811C164.803 22.3555 164.797 22.3365 164.796 22.3342C164.796 22.3337 164.801 22.3532 164.801 22.4H165.801ZM165.161 21.48L165.533 20.5515C164.976 20.3288 164.332 20.24 163.641 20.24V21.24V22.24C164.177 22.24 164.547 22.3112 164.79 22.4085L165.161 21.48ZM163.641 21.24V20.24H163.521V21.24V22.24H163.641V21.24ZM163.521 21.24H164.521V19.56H163.521H162.521V21.24H163.521ZM163.521 19.56V20.56H172.281V19.56V18.56H163.521V19.56ZM172.281 19.56H171.281V21.24H172.281H173.281V19.56H172.281ZM172.281 21.24V20.24H171.921V21.24V22.24H172.281V21.24ZM171.921 21.24V20.24C171.327 20.24 170.758 20.3183 170.223 20.4855L170.521 21.44L170.82 22.3945C171.138 22.295 171.503 22.24 171.921 22.24V21.24ZM170.521 21.44L170.264 20.4738C169.671 20.6318 169.125 20.9684 168.623 21.4074L169.281 22.16L169.94 22.9126C170.291 22.6049 170.572 22.4616 170.779 22.4062L170.521 21.44ZM169.281 22.16L168.599 21.4289C168.136 21.8615 167.628 22.4625 167.078 23.2048L167.881 23.8L168.685 24.3952C169.202 23.6975 169.627 23.2051 169.964 22.8911L169.281 22.16ZM167.881 23.8L167.082 23.1991L162.962 28.6791L163.761 29.28L164.561 29.8809L168.681 24.4009L167.881 23.8ZM163.761 29.28L162.958 29.8761L168.839 37.7961L169.641 37.2L170.444 36.6039L164.564 28.6839L163.761 29.28ZM169.641 37.2L168.857 37.8196C169.278 38.3536 169.687 38.809 170.083 39.1748L170.761 38.44L171.44 37.7052C171.143 37.431 170.805 37.0597 170.426 36.5804L169.641 37.2ZM170.761 38.44L170.111 39.1993C170.544 39.5709 171.001 39.8682 171.482 40.0533L171.841 39.12L172.2 38.1867C171.988 38.1051 171.725 37.9491 171.412 37.6807L170.761 38.44ZM171.841 39.12L171.482 40.0533C171.926 40.2238 172.381 40.32 172.841 40.32V39.32V38.32C172.662 38.32 172.451 38.2829 172.2 38.1867L171.841 39.12ZM172.841 39.32V40.32H173.361V39.32V38.32H172.841V39.32ZM173.361 39.32H172.361V41H173.361H174.361V39.32H173.361ZM173.361 41V40H163.041V41V42H173.361V41ZM163.041 41H164.041V39.32H163.041H162.041V41H163.041ZM163.041 39.32V40.32H163.241V39.32V38.32H163.041V39.32ZM163.241 39.32V40.32C164.098 40.32 164.895 40.2114 165.512 39.8824L165.041 39L164.571 38.1176C164.388 38.2153 163.985 38.32 163.241 38.32V39.32ZM165.041 39L165.556 39.8575C166.223 39.4571 166.641 38.8157 166.641 38H165.641H164.641C164.641 38.0281 164.638 38.0429 164.637 38.048C164.636 38.0526 164.635 38.0541 164.634 38.0555C164.634 38.0559 164.614 38.0902 164.527 38.1425L165.041 39ZM165.641 38H166.641C166.641 37.4632 166.447 36.9616 166.173 36.5159L165.321 37.04L164.47 37.5641C164.622 37.8117 164.641 37.9502 164.641 38H165.641ZM165.321 37.04L166.216 36.5928C165.986 36.1324 165.537 35.4694 164.924 34.6442L164.121 35.24L163.318 35.8358C163.933 36.6639 164.284 37.2009 164.427 37.4872L165.321 37.04ZM164.121 35.24L164.924 34.6429L162.244 31.0429L161.441 31.64L160.639 32.2371L163.319 35.8371L164.121 35.24ZM161.441 31.64L160.628 31.0588L157.828 34.9788L158.641 35.56L159.455 36.1412L162.255 32.2212L161.441 31.64ZM158.641 35.56L157.841 34.96C157.556 35.3411 157.285 35.796 157.027 36.3128L157.921 36.76L158.816 37.2072C159.037 36.764 159.247 36.4189 159.441 36.16L158.641 35.56ZM157.921 36.76L157.038 36.2921C156.737 36.8606 156.561 37.4603 156.561 38.08H157.561H158.561C158.561 37.8463 158.626 37.566 158.805 37.2279L157.921 36.76ZM157.561 38.08H156.561C156.561 38.869 156.943 39.5186 157.625 39.9082L158.121 39.04L158.618 38.1718C158.587 38.1541 158.572 38.141 158.566 38.1359C158.561 38.1312 158.562 38.1314 158.565 38.1361C158.568 38.1409 158.568 38.1427 158.567 38.1375C158.565 38.1315 158.561 38.1137 158.561 38.08H157.561ZM158.121 39.04L157.699 39.9462C158.307 40.23 159.132 40.32 160.041 40.32V39.32V38.32C159.191 38.32 158.736 38.2233 158.544 38.1338L158.121 39.04ZM160.041 39.32V40.32H160.161V39.32V38.32H160.041V39.32ZM160.161 39.32H159.161V41H160.161H161.161V39.32H160.161ZM160.161 41V40H150.641V41V42H160.161V41Z" fill="black" mask="url(#path-1-outside-1_24_4854)"/>
</g>
<defs>
<clipPath id="clip0_24_4854">
<rect width="200" height="50" fill="white"/>
</clipPath>
</defs>
</svg>
