<svg width="108" height="78" viewBox="0 0 108 78" fill="none" xmlns="http://www.w3.org/2000/svg">
<g filter="url(#filter0_d_15_312)">
<g clip-path="url(#clip0_15_312)">
<rect x="4" width="100" height="70" rx="10" fill="#EBE6EB"/>
<path d="M37.8453 38.6396V40H32.5611V38.6396H37.8453ZM33.0465 30.0469V40H31.3307V30.0469H33.0465ZM37.1549 34.2031V35.543H32.5611V34.2031H37.1549ZM37.8111 30.0469V31.4141H32.5611V30.0469H37.8111ZM40.4404 32.6035L41.8486 35.0576L43.2842 32.6035H45.0957L42.8535 36.2334L45.1846 40H43.373L41.8691 37.4434L40.3652 40H38.5469L40.8711 36.2334L38.6357 32.6035H40.4404ZM47.9779 34.0254V42.8438H46.3305V32.6035H47.848L47.9779 34.0254ZM52.7973 36.2334V36.377C52.7973 36.9147 52.7335 37.4137 52.6059 37.874C52.4828 38.3298 52.2982 38.7285 52.0521 39.0703C51.8106 39.4076 51.5121 39.6696 51.1566 39.8564C50.8012 40.0433 50.391 40.1367 49.9262 40.1367C49.4659 40.1367 49.0626 40.0524 48.7162 39.8838C48.3744 39.7106 48.085 39.4668 47.848 39.1523C47.6111 38.8379 47.4197 38.4688 47.2738 38.0449C47.1326 37.6165 47.0323 37.1471 46.973 36.6367V36.083C47.0323 35.5407 47.1326 35.0485 47.2738 34.6064C47.4197 34.1644 47.6111 33.7839 47.848 33.4648C48.085 33.1458 48.3744 32.8997 48.7162 32.7266C49.058 32.5534 49.4568 32.4668 49.9125 32.4668C50.3773 32.4668 50.7898 32.5579 51.1498 32.7402C51.5098 32.918 51.8129 33.1732 52.059 33.5059C52.3051 33.834 52.4896 34.2305 52.6127 34.6953C52.7357 35.1556 52.7973 35.6683 52.7973 36.2334ZM51.1498 36.377V36.2334C51.1498 35.8916 51.1179 35.5749 51.0541 35.2832C50.9903 34.987 50.89 34.7272 50.7533 34.5039C50.6166 34.2806 50.4411 34.1074 50.227 33.9844C50.0173 33.8568 49.7644 33.793 49.4682 33.793C49.1765 33.793 48.9258 33.8431 48.7162 33.9434C48.5066 34.0391 48.3311 34.1735 48.1898 34.3467C48.0486 34.5199 47.9392 34.7227 47.8617 34.9551C47.7842 35.1829 47.7296 35.4313 47.6977 35.7002V37.0264C47.7523 37.3545 47.8458 37.6553 47.9779 37.9287C48.1101 38.2021 48.2969 38.4209 48.5385 38.585C48.7846 38.7445 49.099 38.8242 49.4818 38.8242C49.7781 38.8242 50.031 38.7604 50.2406 38.6328C50.4503 38.5052 50.6212 38.3298 50.7533 38.1064C50.89 37.8786 50.9903 37.6165 51.0541 37.3203C51.1179 37.0241 51.1498 36.7096 51.1498 36.377ZM56.0623 29.5V40H54.408V29.5H56.0623ZM57.6525 36.3838V36.2266C57.6525 35.6934 57.73 35.1989 57.885 34.7432C58.0399 34.2829 58.2632 33.8841 58.5549 33.5469C58.8511 33.2051 59.2111 32.9408 59.635 32.7539C60.0633 32.5625 60.5464 32.4668 61.0842 32.4668C61.6265 32.4668 62.1096 32.5625 62.5334 32.7539C62.9618 32.9408 63.3241 33.2051 63.6203 33.5469C63.9165 33.8841 64.1421 34.2829 64.2971 34.7432C64.452 35.1989 64.5295 35.6934 64.5295 36.2266V36.3838C64.5295 36.917 64.452 37.4115 64.2971 37.8672C64.1421 38.3229 63.9165 38.7217 63.6203 39.0635C63.3241 39.4007 62.9641 39.665 62.5402 39.8564C62.1164 40.0433 61.6356 40.1367 61.0979 40.1367C60.5555 40.1367 60.0702 40.0433 59.6418 39.8564C59.218 39.665 58.8579 39.4007 58.5617 39.0635C58.2655 38.7217 58.0399 38.3229 57.885 37.8672C57.73 37.4115 57.6525 36.917 57.6525 36.3838ZM59.3 36.2266V36.3838C59.3 36.7165 59.3342 37.0309 59.4025 37.3271C59.4709 37.6234 59.578 37.8831 59.7238 38.1064C59.8697 38.3298 60.0565 38.5052 60.2844 38.6328C60.5122 38.7604 60.7834 38.8242 61.0979 38.8242C61.4032 38.8242 61.6675 38.7604 61.8908 38.6328C62.1187 38.5052 62.3055 38.3298 62.4514 38.1064C62.5972 37.8831 62.7043 37.6234 62.7727 37.3271C62.8456 37.0309 62.882 36.7165 62.882 36.3838V36.2266C62.882 35.8984 62.8456 35.5885 62.7727 35.2969C62.7043 35.0007 62.5949 34.7386 62.4445 34.5107C62.2987 34.2829 62.1118 34.1051 61.884 33.9775C61.6607 33.8454 61.3941 33.7793 61.0842 33.7793C60.7743 33.7793 60.5054 33.8454 60.2775 33.9775C60.0542 34.1051 59.8697 34.2829 59.7238 34.5107C59.578 34.7386 59.4709 35.0007 59.4025 35.2969C59.3342 35.5885 59.3 35.8984 59.3 36.2266ZM67.6646 34.0117V40H66.0172V32.6035H67.5895L67.6646 34.0117ZM69.9273 32.5557L69.9137 34.0869C69.8134 34.0687 69.704 34.055 69.5855 34.0459C69.4716 34.0368 69.3577 34.0322 69.2438 34.0322C68.9612 34.0322 68.7128 34.0732 68.4986 34.1553C68.2844 34.2327 68.1044 34.3467 67.9586 34.4971C67.8173 34.6429 67.7079 34.8206 67.6305 35.0303C67.553 35.2399 67.5074 35.4746 67.4938 35.7344L67.1178 35.7617C67.1178 35.2969 67.1633 34.8662 67.2545 34.4697C67.3456 34.0732 67.4824 33.7246 67.6646 33.4238C67.8515 33.123 68.0839 32.8883 68.3619 32.7197C68.6445 32.5511 68.9703 32.4668 69.3395 32.4668C69.4397 32.4668 69.5468 32.4759 69.6607 32.4941C69.7792 32.5124 69.8681 32.5329 69.9273 32.5557ZM74.1836 40.1367C73.6367 40.1367 73.1423 40.0479 72.7002 39.8701C72.2627 39.6878 71.889 39.4349 71.5791 39.1113C71.2738 38.7878 71.0391 38.4072 70.875 37.9697C70.7109 37.5322 70.6289 37.0605 70.6289 36.5547V36.2812C70.6289 35.7025 70.7132 35.1784 70.8818 34.709C71.0505 34.2396 71.2852 33.8385 71.5859 33.5059C71.8867 33.1686 72.2422 32.9111 72.6523 32.7334C73.0625 32.5557 73.5068 32.4668 73.9854 32.4668C74.514 32.4668 74.9766 32.5557 75.373 32.7334C75.7695 32.9111 76.0977 33.1618 76.3574 33.4854C76.6217 33.8044 76.8177 34.1849 76.9453 34.627C77.0775 35.069 77.1436 35.5566 77.1436 36.0898V36.7939H71.4287V35.6113H75.5166V35.4814C75.5075 35.1852 75.4482 34.9072 75.3389 34.6475C75.234 34.3877 75.0723 34.1781 74.8535 34.0186C74.6348 33.859 74.3431 33.7793 73.9785 33.7793C73.7051 33.7793 73.4613 33.8385 73.2471 33.957C73.0374 34.071 72.862 34.2373 72.7207 34.4561C72.5794 34.6748 72.4701 34.9391 72.3926 35.249C72.3197 35.5544 72.2832 35.8984 72.2832 36.2812V36.5547C72.2832 36.8783 72.3265 37.179 72.4131 37.457C72.5042 37.7305 72.6364 37.9697 72.8096 38.1748C72.9827 38.3799 73.1924 38.5417 73.4385 38.6602C73.6846 38.7741 73.9648 38.8311 74.2793 38.8311C74.6758 38.8311 75.029 38.7513 75.3389 38.5918C75.6488 38.4323 75.9176 38.2067 76.1455 37.915L77.0137 38.7559C76.8542 38.9883 76.6468 39.2116 76.3916 39.4258C76.1364 39.6354 75.8242 39.8063 75.4551 39.9385C75.0905 40.0706 74.6667 40.1367 74.1836 40.1367Z" fill="#020202"/>
</g>
</g>
<defs>
<filter id="filter0_d_15_312" x="0" y="0" width="108" height="78" filterUnits="userSpaceOnUse" color-interpolation-filters="sRGB">
<feFlood flood-opacity="0" result="BackgroundImageFix"/>
<feColorMatrix in="SourceAlpha" type="matrix" values="0 0 0 0 0 0 0 0 0 0 0 0 0 0 0 0 0 0 127 0" result="hardAlpha"/>
<feOffset dy="4"/>
<feGaussianBlur stdDeviation="2"/>
<feComposite in2="hardAlpha" operator="out"/>
<feColorMatrix type="matrix" values="0 0 0 0 0 0 0 0 0 0 0 0 0 0 0 0 0 0 0.25 0"/>
<feBlend mode="normal" in2="BackgroundImageFix" result="effect1_dropShadow_15_312"/>
<feBlend mode="normal" in="SourceGraphic" in2="effect1_dropShadow_15_312" result="shape"/>
</filter>
<clipPath id="clip0_15_312">
<rect x="4" width="100" height="70" rx="10" fill="white"/>
</clipPath>
</defs>
</svg>
