<svg width="50" height="50" viewBox="0 0 50 50" fill="none" xmlns="http://www.w3.org/2000/svg">
<path d="M10.4167 25H6.25L25 6.25L43.75 25H39.5833" stroke="black" stroke-width="2" stroke-linecap="round" stroke-linejoin="round"/>
<path d="M10.4167 25V39.5833C10.4167 40.6884 10.8557 41.7482 11.6371 42.5296C12.4185 43.311 13.4783 43.75 14.5834 43.75H35.4167C36.5218 43.75 37.5816 43.311 38.363 42.5296C39.1444 41.7482 39.5834 40.6884 39.5834 39.5833V25" stroke="black" stroke-width="2" stroke-linecap="round" stroke-linejoin="round"/>
<path d="M18.75 43.7507V31.2507C18.75 30.1456 19.189 29.0858 19.9704 28.3044C20.7518 27.523 21.8116 27.084 22.9167 27.084H27.0833C28.1884 27.084 29.2482 27.523 30.0296 28.3044C30.811 29.0858 31.25 30.1456 31.25 31.2507V43.7507" stroke="black" stroke-width="2" stroke-linecap="round" stroke-linejoin="round"/>
</svg>
