<svg width="50" height="50" viewBox="0 0 50 50" fill="none" xmlns="http://www.w3.org/2000/svg">
<path d="M8.33325 39.5833V35.4167H12.4999V20.8333C12.4999 17.9514 13.368 15.3993 15.1041 13.1771C16.8402 10.9201 19.0971 9.44445 21.8749 8.75V7.29167C21.8749 6.42362 22.1701 5.69445 22.7603 5.10417C23.3853 4.47917 24.1319 4.16667 24.9999 4.16667C25.868 4.16667 26.5971 4.47917 27.1874 5.10417C27.8124 5.69445 28.1249 6.42362 28.1249 7.29167V8.75C30.9027 9.44445 33.1596 10.9201 34.8958 13.1771C36.6319 15.3993 37.4999 17.9514 37.4999 20.8333V35.4167H41.6666V39.5833H8.33325ZM24.9999 45.8333C23.8541 45.8333 22.8645 45.434 22.0312 44.6354C21.2326 43.8021 20.8333 42.8125 20.8333 41.6667H29.1666C29.1666 42.8125 28.7499 43.8021 27.9166 44.6354C27.118 45.434 26.1458 45.8333 24.9999 45.8333ZM16.6666 35.4167H33.3333V20.8333C33.3333 18.5417 32.5173 16.5799 30.8853 14.9479C29.2534 13.316 27.2916 12.5 24.9999 12.5C22.7083 12.5 20.7464 13.316 19.1145 14.9479C17.4826 16.5799 16.6666 18.5417 16.6666 20.8333V35.4167Z" fill="#1D1B20"/>
</svg>
