<svg width="50" height="50" viewBox="0 0 50 50" fill="none" xmlns="http://www.w3.org/2000/svg">
<path d="M42.6771 6.25H34.3611L35.4028 16.6667C35.4028 16.6667 37.4861 18.75 40.6111 18.75C42.8548 18.75 44.3825 17.6759 45.0659 17.0702C45.3382 16.8288 45.4378 16.4602 45.378 16.1013L43.91 7.2945C43.8096 6.69177 43.2882 6.25 42.6771 6.25Z" stroke="black" stroke-width="1.5"/>
<path d="M34.3611 6.25L35.4027 16.6667C35.4027 16.6667 33.3194 18.75 30.1944 18.75C27.0694 18.75 24.9861 16.6667 24.9861 16.6667V6.25H34.3611Z" stroke="black" stroke-width="1.5"/>
<path d="M24.986 6.25V16.6667C24.986 16.6667 22.9027 18.75 19.7777 18.75C16.6527 18.75 14.5693 16.6667 14.5693 16.6667L15.611 6.25H24.986Z" stroke="black" stroke-width="1.5"/>
<path d="M15.611 6.25H7.29492C6.68388 6.25 6.1624 6.69177 6.06195 7.2945L4.59413 16.1013C4.53432 16.4602 4.63397 16.8288 4.90626 17.0702C5.58943 17.6759 7.11717 18.75 9.36099 18.75C12.486 18.75 14.5694 16.6667 14.5694 16.6667L15.611 6.25Z" stroke="black" stroke-width="1.5"/>
<path d="M6.25 18.75V39.5833C6.25 41.8846 8.11548 43.75 10.4167 43.75H39.5833C41.8846 43.75 43.75 41.8846 43.75 39.5833V18.75" stroke="black" stroke-width="1.5"/>
<path d="M30.9028 43.7507V31.2507C30.9028 28.9494 29.0374 27.084 26.7361 27.084H22.5695C20.2683 27.084 18.4028 28.9494 18.4028 31.2507V43.7507" stroke="black" stroke-width="1.5" stroke-miterlimit="16"/>
</svg>
