<svg width="108" height="78" viewBox="0 0 108 78" fill="none" xmlns="http://www.w3.org/2000/svg">
<g filter="url(#filter0_d_15_319)">
<g clip-path="url(#clip0_15_319)">
<rect x="4" width="100" height="70" rx="10" fill="#424242"/>
<path d="M38.3854 37.4365C38.3854 37.2314 38.3535 37.0492 38.2896 36.8896C38.2304 36.7301 38.1233 36.5843 37.9684 36.4521C37.8134 36.32 37.5947 36.1924 37.3121 36.0693C37.0341 35.9417 36.6786 35.8118 36.2457 35.6797C35.7717 35.5339 35.3342 35.3721 34.9332 35.1943C34.5367 35.012 34.1904 34.8024 33.8941 34.5654C33.5979 34.3239 33.3678 34.0482 33.2037 33.7383C33.0396 33.4238 32.9576 33.0615 32.9576 32.6514C32.9576 32.2458 33.0419 31.8766 33.2105 31.5439C33.3837 31.2113 33.6275 30.9242 33.942 30.6826C34.261 30.4365 34.637 30.2474 35.0699 30.1152C35.5029 29.9785 35.9814 29.9102 36.5055 29.9102C37.2437 29.9102 37.8795 30.0469 38.4127 30.3203C38.9505 30.5938 39.3629 30.9606 39.65 31.4209C39.9417 31.8812 40.0875 32.3893 40.0875 32.9453H38.3854C38.3854 32.6172 38.3147 32.3278 38.1734 32.0771C38.0367 31.8219 37.8271 31.6214 37.5445 31.4756C37.2665 31.3298 36.9133 31.2568 36.485 31.2568C36.0794 31.2568 35.7421 31.3184 35.4732 31.4414C35.2044 31.5645 35.0038 31.7308 34.8717 31.9404C34.7395 32.1501 34.6734 32.387 34.6734 32.6514C34.6734 32.8382 34.7167 33.0091 34.8033 33.1641C34.8899 33.3145 35.0221 33.4557 35.1998 33.5879C35.3775 33.7155 35.6008 33.8363 35.8697 33.9502C36.1386 34.0641 36.4553 34.1735 36.8199 34.2783C37.3714 34.4424 37.8521 34.6247 38.2623 34.8252C38.6725 35.0212 39.0143 35.2445 39.2877 35.4951C39.5611 35.7458 39.7662 36.0306 39.9029 36.3496C40.0396 36.6641 40.108 37.0218 40.108 37.4229C40.108 37.8421 40.0237 38.2204 39.8551 38.5576C39.6865 38.8903 39.4449 39.1751 39.1305 39.4121C38.8206 39.6445 38.4469 39.8245 38.0094 39.9521C37.5764 40.0752 37.0934 40.1367 36.5602 40.1367C36.0816 40.1367 35.61 40.0729 35.1451 39.9453C34.6848 39.8177 34.2656 39.624 33.8873 39.3643C33.509 39.0999 33.2083 38.7718 32.985 38.3799C32.7617 37.9834 32.65 37.5208 32.65 36.9922H34.3658C34.3658 37.3158 34.4205 37.5915 34.5299 37.8193C34.6438 38.0472 34.801 38.234 35.0016 38.3799C35.2021 38.5212 35.4345 38.626 35.6988 38.6943C35.9677 38.7627 36.2548 38.7969 36.5602 38.7969C36.9612 38.7969 37.2962 38.7399 37.565 38.626C37.8385 38.512 38.0436 38.3525 38.1803 38.1475C38.317 37.9424 38.3854 37.7054 38.3854 37.4365ZM43.3252 32.6035V40H41.6709V32.6035H43.3252ZM41.5615 30.6621C41.5615 30.4115 41.6436 30.2041 41.8076 30.04C41.9762 29.8714 42.2087 29.7871 42.5049 29.7871C42.7965 29.7871 43.0267 29.8714 43.1953 30.04C43.3639 30.2041 43.4482 30.4115 43.4482 30.6621C43.4482 30.9082 43.3639 31.1133 43.1953 31.2773C43.0267 31.4414 42.7965 31.5234 42.5049 31.5234C42.2087 31.5234 41.9762 31.4414 41.8076 31.2773C41.6436 31.1133 41.5615 30.9082 41.5615 30.6621ZM49.9672 32.6035H51.4643V39.7949C51.4643 40.4603 51.323 41.0254 51.0404 41.4902C50.7579 41.9551 50.3637 42.3083 49.8578 42.5498C49.352 42.7959 48.7663 42.9189 48.101 42.9189C47.8184 42.9189 47.504 42.8779 47.1576 42.7959C46.8158 42.7139 46.4831 42.5817 46.1596 42.3994C45.8406 42.2217 45.574 41.987 45.3598 41.6953L46.1322 40.7246C46.3965 41.0391 46.6882 41.2692 47.0072 41.415C47.3262 41.5609 47.6612 41.6338 48.0121 41.6338C48.3904 41.6338 48.7117 41.5632 48.976 41.4219C49.2449 41.2852 49.4522 41.0824 49.598 40.8135C49.7439 40.5446 49.8168 40.2165 49.8168 39.8291V34.2783L49.9672 32.6035ZM44.9428 36.3838V36.2402C44.9428 35.6797 45.0111 35.1693 45.1479 34.709C45.2846 34.2441 45.4805 33.8454 45.7357 33.5127C45.9909 33.1755 46.3008 32.918 46.6654 32.7402C47.03 32.5579 47.4424 32.4668 47.9027 32.4668C48.3812 32.4668 48.7891 32.5534 49.1264 32.7266C49.4682 32.8997 49.753 33.1481 49.9809 33.4717C50.2087 33.7907 50.3865 34.1735 50.5141 34.6201C50.6462 35.0622 50.7442 35.5544 50.808 36.0967V36.5547C50.7488 37.0833 50.6485 37.5664 50.5072 38.0039C50.3659 38.4414 50.1791 38.8197 49.9467 39.1387C49.7143 39.4577 49.4271 39.7038 49.0854 39.877C48.7481 40.0501 48.3493 40.1367 47.8891 40.1367C47.4379 40.1367 47.03 40.0433 46.6654 39.8564C46.3054 39.6696 45.9955 39.4076 45.7357 39.0703C45.4805 38.7331 45.2846 38.3366 45.1479 37.8809C45.0111 37.4206 44.9428 36.9215 44.9428 36.3838ZM46.5902 36.2402V36.3838C46.5902 36.721 46.6221 37.0355 46.6859 37.3271C46.7543 37.6188 46.8568 37.8763 46.9936 38.0996C47.1348 38.3184 47.3126 38.4915 47.5268 38.6191C47.7455 38.7422 48.003 38.8037 48.2992 38.8037C48.6866 38.8037 49.0033 38.7217 49.2494 38.5576C49.5001 38.3936 49.6915 38.1725 49.8236 37.8945C49.9604 37.612 50.0561 37.2975 50.1107 36.9512V35.7139C50.0834 35.445 50.0264 35.1943 49.9398 34.9619C49.8578 34.7295 49.7462 34.5267 49.6049 34.3535C49.4636 34.1758 49.2859 34.0391 49.0717 33.9434C48.8575 33.8431 48.6046 33.793 48.3129 33.793C48.0167 33.793 47.7592 33.8568 47.5404 33.9844C47.3217 34.112 47.1417 34.2874 47.0004 34.5107C46.8637 34.734 46.7611 34.9938 46.6928 35.29C46.6244 35.5863 46.5902 35.903 46.5902 36.2402ZM54.907 34.1826V40H53.2596V32.6035H54.8113L54.907 34.1826ZM54.6131 36.0283L54.0799 36.0215C54.0844 35.4974 54.1574 35.0166 54.2986 34.5791C54.4445 34.1416 54.645 33.7656 54.9002 33.4512C55.16 33.1367 55.4699 32.8952 55.8299 32.7266C56.1899 32.5534 56.5909 32.4668 57.033 32.4668C57.3885 32.4668 57.7098 32.5169 57.9969 32.6172C58.2885 32.7129 58.5369 32.8701 58.742 33.0889C58.9516 33.3076 59.1111 33.5924 59.2205 33.9434C59.3299 34.2897 59.3846 34.7158 59.3846 35.2217V40H57.7303V35.2148C57.7303 34.8594 57.6779 34.5791 57.573 34.374C57.4728 34.1644 57.3247 34.0163 57.1287 33.9297C56.9373 33.8385 56.698 33.793 56.4109 33.793C56.1284 33.793 55.8755 33.8522 55.6521 33.9707C55.4288 34.0892 55.2397 34.251 55.0848 34.4561C54.9344 34.6611 54.8182 34.8981 54.7361 35.167C54.6541 35.4359 54.6131 35.723 54.6131 36.0283ZM66.7486 30.0469V40H65.0328V30.0469H66.7486ZM70.4512 34.1826V40H68.8037V32.6035H70.3555L70.4512 34.1826ZM70.1572 36.0283L69.624 36.0215C69.6286 35.4974 69.7015 35.0166 69.8428 34.5791C69.9886 34.1416 70.1891 33.7656 70.4443 33.4512C70.7041 33.1367 71.014 32.8952 71.374 32.7266C71.734 32.5534 72.1351 32.4668 72.5771 32.4668C72.9326 32.4668 73.2539 32.5169 73.541 32.6172C73.8327 32.7129 74.0811 32.8701 74.2861 33.0889C74.4958 33.3076 74.6553 33.5924 74.7646 33.9434C74.874 34.2897 74.9287 34.7158 74.9287 35.2217V40H73.2744V35.2148C73.2744 34.8594 73.222 34.5791 73.1172 34.374C73.0169 34.1644 72.8688 34.0163 72.6729 33.9297C72.4814 33.8385 72.2422 33.793 71.9551 33.793C71.6725 33.793 71.4196 33.8522 71.1963 33.9707C70.973 34.0892 70.7839 34.251 70.6289 34.4561C70.4785 34.6611 70.3623 34.8981 70.2803 35.167C70.1982 35.4359 70.1572 35.723 70.1572 36.0283Z" fill="white"/>
</g>
</g>
<defs>
<filter id="filter0_d_15_319" x="0" y="0" width="108" height="78" filterUnits="userSpaceOnUse" color-interpolation-filters="sRGB">
<feFlood flood-opacity="0" result="BackgroundImageFix"/>
<feColorMatrix in="SourceAlpha" type="matrix" values="0 0 0 0 0 0 0 0 0 0 0 0 0 0 0 0 0 0 127 0" result="hardAlpha"/>
<feOffset dy="4"/>
<feGaussianBlur stdDeviation="2"/>
<feComposite in2="hardAlpha" operator="out"/>
<feColorMatrix type="matrix" values="0 0 0 0 0 0 0 0 0 0 0 0 0 0 0 0 0 0 0.25 0"/>
<feBlend mode="normal" in2="BackgroundImageFix" result="effect1_dropShadow_15_319"/>
<feBlend mode="normal" in="SourceGraphic" in2="effect1_dropShadow_15_319" result="shape"/>
</filter>
<clipPath id="clip0_15_319">
<rect x="4" width="100" height="70" rx="10" fill="white"/>
</clipPath>
</defs>
</svg>
