<svg width="108" height="78" viewBox="0 0 108 78" fill="none" xmlns="http://www.w3.org/2000/svg">
<g filter="url(#filter0_d_15_325)">
<g clip-path="url(#clip0_15_325)">
<rect x="4" width="100" height="70" rx="10" fill="#EBE6EB"/>
<path d="M35.7467 37.4365C35.7467 37.2314 35.7148 37.0492 35.651 36.8896C35.5917 36.7301 35.4846 36.5843 35.3297 36.4521C35.1747 36.32 34.956 36.1924 34.6734 36.0693C34.3954 35.9417 34.04 35.8118 33.607 35.6797C33.1331 35.5339 32.6956 35.3721 32.2945 35.1943C31.898 35.012 31.5517 34.8024 31.2555 34.5654C30.9592 34.3239 30.7291 34.0482 30.565 33.7383C30.401 33.4238 30.3189 33.0615 30.3189 32.6514C30.3189 32.2458 30.4033 31.8766 30.5719 31.5439C30.7451 31.2113 30.9889 30.9242 31.3033 30.6826C31.6223 30.4365 31.9983 30.2474 32.4312 30.1152C32.8642 29.9785 33.3427 29.9102 33.8668 29.9102C34.6051 29.9102 35.2408 30.0469 35.774 30.3203C36.3118 30.5938 36.7242 30.9606 37.0113 31.4209C37.303 31.8812 37.4488 32.3893 37.4488 32.9453H35.7467C35.7467 32.6172 35.676 32.3278 35.5348 32.0771C35.398 31.8219 35.1884 31.6214 34.9059 31.4756C34.6279 31.3298 34.2747 31.2568 33.8463 31.2568C33.4407 31.2568 33.1035 31.3184 32.8346 31.4414C32.5657 31.5645 32.3652 31.7308 32.233 31.9404C32.1008 32.1501 32.0348 32.387 32.0348 32.6514C32.0348 32.8382 32.0781 33.0091 32.1646 33.1641C32.2512 33.3145 32.3834 33.4557 32.5611 33.5879C32.7389 33.7155 32.9622 33.8363 33.2311 33.9502C33.4999 34.0641 33.8167 34.1735 34.1812 34.2783C34.7327 34.4424 35.2135 34.6247 35.6236 34.8252C36.0338 35.0212 36.3756 35.2445 36.649 35.4951C36.9225 35.7458 37.1275 36.0306 37.2643 36.3496C37.401 36.6641 37.4693 37.0218 37.4693 37.4229C37.4693 37.8421 37.385 38.2204 37.2164 38.5576C37.0478 38.8903 36.8062 39.1751 36.4918 39.4121C36.1819 39.6445 35.8082 39.8245 35.3707 39.9521C34.9378 40.0752 34.4547 40.1367 33.9215 40.1367C33.443 40.1367 32.9713 40.0729 32.5064 39.9453C32.0462 39.8177 31.6269 39.624 31.2486 39.3643C30.8704 39.0999 30.5696 38.7718 30.3463 38.3799C30.123 37.9834 30.0113 37.5208 30.0113 36.9922H31.7271C31.7271 37.3158 31.7818 37.5915 31.8912 37.8193C32.0051 38.0472 32.1624 38.234 32.3629 38.3799C32.5634 38.5212 32.7958 38.626 33.0602 38.6943C33.329 38.7627 33.6161 38.7969 33.9215 38.7969C34.3225 38.7969 34.6575 38.7399 34.9264 38.626C35.1998 38.512 35.4049 38.3525 35.5416 38.1475C35.6783 37.9424 35.7467 37.7054 35.7467 37.4365ZM40.6865 32.6035V40H39.0322V32.6035H40.6865ZM38.9229 30.6621C38.9229 30.4115 39.0049 30.2041 39.1689 30.04C39.3376 29.8714 39.57 29.7871 39.8662 29.7871C40.1579 29.7871 40.388 29.8714 40.5566 30.04C40.7253 30.2041 40.8096 30.4115 40.8096 30.6621C40.8096 30.9082 40.7253 31.1133 40.5566 31.2773C40.388 31.4414 40.1579 31.5234 39.8662 31.5234C39.57 31.5234 39.3376 31.4414 39.1689 31.2773C39.0049 31.1133 38.9229 30.9082 38.9229 30.6621ZM47.3285 32.6035H48.8256V39.7949C48.8256 40.4603 48.6843 41.0254 48.4018 41.4902C48.1192 41.9551 47.725 42.3083 47.2191 42.5498C46.7133 42.7959 46.1277 42.9189 45.4623 42.9189C45.1798 42.9189 44.8653 42.8779 44.5189 42.7959C44.1771 42.7139 43.8445 42.5817 43.5209 42.3994C43.2019 42.2217 42.9353 41.987 42.7211 41.6953L43.4936 40.7246C43.7579 41.0391 44.0495 41.2692 44.3686 41.415C44.6876 41.5609 45.0225 41.6338 45.3734 41.6338C45.7517 41.6338 46.073 41.5632 46.3373 41.4219C46.6062 41.2852 46.8135 41.0824 46.9594 40.8135C47.1052 40.5446 47.1781 40.2165 47.1781 39.8291V34.2783L47.3285 32.6035ZM42.3041 36.3838V36.2402C42.3041 35.6797 42.3725 35.1693 42.5092 34.709C42.6459 34.2441 42.8419 33.8454 43.0971 33.5127C43.3523 33.1755 43.6622 32.918 44.0268 32.7402C44.3913 32.5579 44.8038 32.4668 45.2641 32.4668C45.7426 32.4668 46.1505 32.5534 46.4877 32.7266C46.8295 32.8997 47.1143 33.1481 47.3422 33.4717C47.5701 33.7907 47.7478 34.1735 47.8754 34.6201C48.0076 35.0622 48.1055 35.5544 48.1693 36.0967V36.5547C48.1101 37.0833 48.0098 37.5664 47.8686 38.0039C47.7273 38.4414 47.5404 38.8197 47.308 39.1387C47.0756 39.4577 46.7885 39.7038 46.4467 39.877C46.1094 40.0501 45.7107 40.1367 45.2504 40.1367C44.7992 40.1367 44.3913 40.0433 44.0268 39.8564C43.6667 39.6696 43.3568 39.4076 43.0971 39.0703C42.8419 38.7331 42.6459 38.3366 42.5092 37.8809C42.3725 37.4206 42.3041 36.9215 42.3041 36.3838ZM43.9516 36.2402V36.3838C43.9516 36.721 43.9835 37.0355 44.0473 37.3271C44.1156 37.6188 44.2182 37.8763 44.3549 38.0996C44.4962 38.3184 44.6739 38.4915 44.8881 38.6191C45.1068 38.7422 45.3643 38.8037 45.6605 38.8037C46.0479 38.8037 46.3646 38.7217 46.6107 38.5576C46.8614 38.3936 47.0528 38.1725 47.185 37.8945C47.3217 37.612 47.4174 37.2975 47.4721 36.9512V35.7139C47.4447 35.445 47.3878 35.1943 47.3012 34.9619C47.2191 34.7295 47.1075 34.5267 46.9662 34.3535C46.8249 34.1758 46.6472 34.0391 46.433 33.9434C46.2188 33.8431 45.9659 33.793 45.6742 33.793C45.378 33.793 45.1205 33.8568 44.9018 33.9844C44.683 34.112 44.503 34.2874 44.3617 34.5107C44.225 34.734 44.1225 34.9938 44.0541 35.29C43.9857 35.5863 43.9516 35.903 43.9516 36.2402ZM52.2684 34.1826V40H50.6209V32.6035H52.1727L52.2684 34.1826ZM51.9744 36.0283L51.4412 36.0215C51.4458 35.4974 51.5187 35.0166 51.66 34.5791C51.8058 34.1416 52.0063 33.7656 52.2615 33.4512C52.5213 33.1367 52.8312 32.8952 53.1912 32.7266C53.5512 32.5534 53.9523 32.4668 54.3943 32.4668C54.7498 32.4668 55.0711 32.5169 55.3582 32.6172C55.6499 32.7129 55.8982 32.8701 56.1033 33.0889C56.313 33.3076 56.4725 33.5924 56.5818 33.9434C56.6912 34.2897 56.7459 34.7158 56.7459 35.2217V40H55.0916V35.2148C55.0916 34.8594 55.0392 34.5791 54.9344 34.374C54.8341 34.1644 54.686 34.0163 54.49 33.9297C54.2986 33.8385 54.0594 33.793 53.7723 33.793C53.4897 33.793 53.2368 33.8522 53.0135 33.9707C52.7902 34.0892 52.601 34.251 52.4461 34.4561C52.2957 34.6611 52.1795 34.8981 52.0975 35.167C52.0154 35.4359 51.9744 35.723 51.9744 36.0283ZM67.8629 30.0469H69.5719V36.6982C69.5719 37.4548 69.4078 38.0882 69.0797 38.5986C68.7516 39.109 68.3049 39.4941 67.7398 39.7539C67.1793 40.0091 66.5527 40.1367 65.86 40.1367C65.1445 40.1367 64.5064 40.0091 63.9459 39.7539C63.3854 39.4941 62.9433 39.109 62.6197 38.5986C62.3007 38.0882 62.1412 37.4548 62.1412 36.6982V30.0469H63.8502V36.6982C63.8502 37.1768 63.9322 37.571 64.0963 37.8809C64.2604 38.1862 64.4928 38.4118 64.7936 38.5576C65.0943 38.7035 65.4498 38.7764 65.86 38.7764C66.2701 38.7764 66.6233 38.7035 66.9195 38.5576C67.2203 38.4118 67.4527 38.1862 67.6168 37.8809C67.7809 37.571 67.8629 37.1768 67.8629 36.6982V30.0469ZM73.0283 34.0254V42.8438H71.3809V32.6035H72.8984L73.0283 34.0254ZM77.8477 36.2334V36.377C77.8477 36.9147 77.7839 37.4137 77.6562 37.874C77.5332 38.3298 77.3486 38.7285 77.1025 39.0703C76.861 39.4076 76.5625 39.6696 76.207 39.8564C75.8516 40.0433 75.4414 40.1367 74.9766 40.1367C74.5163 40.1367 74.113 40.0524 73.7666 39.8838C73.4248 39.7106 73.1354 39.4668 72.8984 39.1523C72.6615 38.8379 72.4701 38.4688 72.3242 38.0449C72.1829 37.6165 72.0827 37.1471 72.0234 36.6367V36.083C72.0827 35.5407 72.1829 35.0485 72.3242 34.6064C72.4701 34.1644 72.6615 33.7839 72.8984 33.4648C73.1354 33.1458 73.4248 32.8997 73.7666 32.7266C74.1084 32.5534 74.5072 32.4668 74.9629 32.4668C75.4277 32.4668 75.8402 32.5579 76.2002 32.7402C76.5602 32.918 76.8633 33.1732 77.1094 33.5059C77.3555 33.834 77.54 34.2305 77.6631 34.6953C77.7861 35.1556 77.8477 35.6683 77.8477 36.2334ZM76.2002 36.377V36.2334C76.2002 35.8916 76.1683 35.5749 76.1045 35.2832C76.0407 34.987 75.9404 34.7272 75.8037 34.5039C75.667 34.2806 75.4915 34.1074 75.2773 33.9844C75.0677 33.8568 74.8148 33.793 74.5186 33.793C74.2269 33.793 73.9762 33.8431 73.7666 33.9434C73.557 34.0391 73.3815 34.1735 73.2402 34.3467C73.099 34.5199 72.9896 34.7227 72.9121 34.9551C72.8346 35.1829 72.7799 35.4313 72.748 35.7002V37.0264C72.8027 37.3545 72.8962 37.6553 73.0283 37.9287C73.1605 38.2021 73.3473 38.4209 73.5889 38.585C73.835 38.7445 74.1494 38.8242 74.5322 38.8242C74.8285 38.8242 75.0814 38.7604 75.291 38.6328C75.5007 38.5052 75.6715 38.3298 75.8037 38.1064C75.9404 37.8786 76.0407 37.6165 76.1045 37.3203C76.1683 37.0241 76.2002 36.7096 76.2002 36.377Z" fill="#020202"/>
</g>
</g>
<defs>
<filter id="filter0_d_15_325" x="0" y="0" width="108" height="78" filterUnits="userSpaceOnUse" color-interpolation-filters="sRGB">
<feFlood flood-opacity="0" result="BackgroundImageFix"/>
<feColorMatrix in="SourceAlpha" type="matrix" values="0 0 0 0 0 0 0 0 0 0 0 0 0 0 0 0 0 0 127 0" result="hardAlpha"/>
<feOffset dy="4"/>
<feGaussianBlur stdDeviation="2"/>
<feComposite in2="hardAlpha" operator="out"/>
<feColorMatrix type="matrix" values="0 0 0 0 0 0 0 0 0 0 0 0 0 0 0 0 0 0 0.25 0"/>
<feBlend mode="normal" in2="BackgroundImageFix" result="effect1_dropShadow_15_325"/>
<feBlend mode="normal" in="SourceGraphic" in2="effect1_dropShadow_15_325" result="shape"/>
</filter>
<clipPath id="clip0_15_325">
<rect x="4" width="100" height="70" rx="10" fill="white"/>
</clipPath>
</defs>
</svg>
