<svg width="50" height="50" viewBox="0 0 50 50" fill="none" xmlns="http://www.w3.org/2000/svg">
<path d="M33.3334 43.75H16.6667C16.1142 43.75 15.5843 43.5305 15.1936 43.1398C14.8029 42.7491 14.5834 42.2192 14.5834 41.6667V25.1458L11.8751 27.3333C11.0626 28.125 9.75008 28.125 8.93758 27.3333L3.04175 21.4375C2.22925 20.625 2.22925 19.3125 3.04175 18.5L15.2917 6.25H18.7501C18.7501 8.54167 21.5417 10.4167 25.0001 10.4167C28.4584 10.4167 31.2501 8.54167 31.2501 6.25H34.7084L46.9584 18.5C47.7709 19.3125 47.7709 20.625 46.9584 21.4375L41.0626 27.3333C40.2501 28.125 38.9376 28.125 38.1251 27.3333L35.4167 25.1458V41.6667C35.4167 42.2192 35.1973 42.7491 34.8066 43.1398C34.4159 43.5305 33.8859 43.75 33.3334 43.75ZM42.5417 19.9583L33.5626 11C32.9167 11.7292 32.1459 12.375 31.2501 12.9167C29.5001 13.9583 27.3542 14.5833 25.0001 14.5833C21.4584 14.5833 18.3126 13.1667 16.4376 11L7.45841 19.9583L10.4167 22.9167L16.6667 18.75H18.7501V39.5833H31.2501V18.75H33.3334L39.5834 22.9167L42.5417 19.9583Z" fill="black" stroke="black" stroke-opacity="0.8" stroke-width="0.5"/>
</svg>
