<svg width="50" height="50" viewBox="0 0 50 50" fill="none" xmlns="http://www.w3.org/2000/svg">
<path d="M12.5 41.666V45.8327M37.5 41.666V45.8327" stroke="black" stroke-width="2" stroke-linecap="round" stroke-linejoin="round"/>
<path d="M6.25 33.334H25" stroke="black" stroke-width="2" stroke-linecap="round" stroke-linejoin="round"/>
<path d="M25 41.666V4.16602" stroke="black" stroke-width="2" stroke-linecap="round" stroke-linejoin="round"/>
<path d="M6.25 29.166V16.666C6.25 10.7735 6.25 7.82718 8.18827 5.9966C10.1265 4.16602 13.2461 4.16602 19.4853 4.16602H30.5148C36.754 4.16602 39.8735 4.16602 41.8117 5.9966C43.75 7.82718 43.75 10.7735 43.75 16.666V29.166C43.75 35.0585 43.75 38.0048 41.8117 39.8354C39.8735 41.666 36.754 41.666 30.5148 41.666H19.4853C13.2461 41.666 10.1265 41.666 8.18827 39.8354C6.25 38.0048 6.25 35.0585 6.25 29.166Z" stroke="black" stroke-width="2" stroke-linecap="round" stroke-linejoin="round"/>
<path d="M18.75 20.8327V16.666" stroke="black" stroke-width="2" stroke-linecap="round" stroke-linejoin="round"/>
<path d="M31.25 25.0007V20.834" stroke="black" stroke-width="2" stroke-linecap="round" stroke-linejoin="round"/>
</svg>
